<?xml version="1.0" encoding="UTF-8"?>
<svg version="1.1" xmlns="http://www.w3.org/2000/svg" width="512" height="512">
<path d="M0 0 C1.01790619 0.00215515 2.03581238 0.0043103 3.08456421 0.00653076 C17.69363523 0.05620146 32.02575853 0.30709809 46.375 3.3125 C47.34985352 3.51117676 48.32470703 3.70985352 49.32910156 3.91455078 C97.7109774 14.03517194 141.69928269 35.9516877 177.375 70.3125 C178.3640332 71.26068604 178.3640332 71.26068604 179.37304688 72.22802734 C188.86130305 81.37247479 197.6012044 90.66984009 205.375 101.3125 C206.23306152 102.46355017 207.09113451 103.61459177 207.94921875 104.765625 C213.98736829 112.95680614 219.34595521 121.47054105 224.375 130.3125 C224.73948242 130.94430176 225.10396484 131.57610352 225.47949219 132.22705078 C247.08534998 169.97532572 256.85198095 212.74189997 256.6875 255.9375 C256.68534485 256.95540619 256.6831897 257.97331238 256.68096924 259.02206421 C256.63129854 273.63113523 256.38040191 287.96325853 253.375 302.3125 C253.07698486 303.77478027 253.07698486 303.77478027 252.77294922 305.26660156 C242.65232806 353.6484774 220.7358123 397.63678269 186.375 433.3125 C185.74287598 433.97185547 185.11075195 434.63121094 184.45947266 435.31054688 C175.31502521 444.79880305 166.01765991 453.5387044 155.375 461.3125 C154.22394983 462.17056152 153.07290823 463.02863451 151.921875 463.88671875 C143.73224019 469.92427396 135.22961724 475.30707302 126.375 480.3125 C125.66778809 480.7146875 124.96057617 481.116875 124.23193359 481.53125 C101.09654164 494.5566741 75.92537591 503.30551461 49.9375 508.625 C49.21860596 508.77235596 48.49971191 508.91971191 47.7590332 509.0715332 C33.08339502 511.86090125 18.55831162 512.66142619 3.64770508 512.62817383 C0.70811513 512.6250221 -2.2304558 512.64854926 -5.16992188 512.67382812 C-18.54306192 512.71848737 -31.43916711 511.51301542 -44.625 509.3125 C-46.33055054 509.03031616 -46.33055054 509.03031616 -48.07055664 508.74243164 C-91.33802759 500.97044532 -132.38793216 480.98345309 -165.625 452.3125 C-166.37007813 451.67828125 -167.11515625 451.0440625 -167.8828125 450.390625 C-181.38779833 438.57948485 -194.05918743 425.82889772 -204.625 411.3125 C-205.48149066 410.16255169 -206.33826433 409.01281411 -207.1953125 407.86328125 C-213.23534209 399.67315742 -218.61867614 391.16870382 -223.625 382.3125 C-224.0271875 381.60528809 -224.429375 380.89807617 -224.84375 380.16943359 C-237.8691741 357.03404164 -246.61801461 331.86287591 -251.9375 305.875 C-252.08485596 305.15610596 -252.23221191 304.43721191 -252.3840332 303.6965332 C-255.35789088 288.05024391 -255.99800362 272.57681954 -255.9375 256.6875 C-255.93534485 255.66959381 -255.9331897 254.65168762 -255.93096924 253.60293579 C-255.88129854 238.99386477 -255.63040191 224.66174147 -252.625 210.3125 C-252.42632324 209.33764648 -252.22764648 208.36279297 -252.02294922 207.35839844 C-242.08694339 159.85908068 -220.72824513 114.97974977 -186.46972656 80.18798828 C-184.52498022 78.21081235 -182.60253414 76.21330796 -180.6796875 74.21484375 C-172.51124101 65.80260723 -164.07869229 58.24179512 -154.625 51.3125 C-154.05571777 50.88775391 -153.48643555 50.46300781 -152.89990234 50.02539062 C-144.15908179 43.50981985 -135.11413672 37.67661453 -125.625 32.3125 C-124.91778809 31.9103125 -124.21057617 31.508125 -123.48193359 31.09375 C-100.34654164 18.0683259 -75.17537591 9.31948539 -49.1875 4 C-48.46860596 3.85264404 -47.74971191 3.70528809 -47.0090332 3.5534668 C-31.36274391 0.57960912 -15.88931954 -0.06050362 0 0 Z " fill="#D70027" transform="translate(255.625,-0.3125)"/>
<path d="M0 0 C1.01790619 0.00215515 2.03581238 0.0043103 3.08456421 0.00653076 C17.69363523 0.05620146 32.02575853 0.30709809 46.375 3.3125 C47.34985352 3.51117676 48.32470703 3.70985352 49.32910156 3.91455078 C97.7109774 14.03517194 141.69928269 35.9516877 177.375 70.3125 C178.3640332 71.26068604 178.3640332 71.26068604 179.37304688 72.22802734 C188.86130305 81.37247479 197.6012044 90.66984009 205.375 101.3125 C206.23306152 102.46355017 207.09113451 103.61459177 207.94921875 104.765625 C213.98736829 112.95680614 219.34595521 121.47054105 224.375 130.3125 C224.73948242 130.94430176 225.10396484 131.57610352 225.47949219 132.22705078 C240.25728768 158.04580292 249.56459364 187.02358516 254.375 216.3125 C254.49214355 217.01858398 254.60928711 217.72466797 254.72998047 218.45214844 C256.15586621 227.43967789 256.47762449 236.26937445 256.421875 245.35546875 C256.41849121 246.41326538 256.41510742 247.47106201 256.41162109 248.56091309 C256.4028646 251.14480962 256.39058313 253.72863716 256.375 256.3125 C223.94950914 256.56363163 191.52429932 256.75820463 159.09805743 256.87421862 C155.26678604 256.88797581 151.43551657 256.90221341 147.60424805 256.91674805 C146.84153608 256.91963346 146.07882411 256.92251888 145.29299966 256.92549173 C132.9555315 256.97331033 120.61862918 257.0600141 108.28149631 257.16118076 C95.61516951 257.26417783 82.94913833 257.32517366 70.28240997 257.34747344 C62.47079204 257.36254087 54.66077359 257.41006095 46.84964827 257.49958114 C40.85209348 257.56480037 34.85590391 257.57147555 28.85795403 257.55668449 C26.40332461 257.55970485 23.94863332 257.58150962 21.49436569 257.62376022 C1.0030872 257.95914679 1.0030872 257.95914679 -4.98430651 252.5341261 C-7.07539361 250.27243177 -8.84315506 247.82150793 -10.625 245.3125 C-12.26306848 243.61771765 -13.9254506 241.94562197 -15.625 240.3125 C-68.625 187.3125 -68.625 187.3125 -71.125 184.75 C-73.55415533 182.29234112 -73.55415533 182.29234112 -76.1875 180.3125 C-78.76977053 178.19371393 -80.57390086 175.94047078 -82.625 173.3125 C-84.2704378 171.62487149 -85.93788577 169.9584651 -87.625 168.3125 C-90.13590797 165.80159203 -92.6452539 163.29173975 -95.125 160.75 C-97.51890968 158.31793753 -97.51890968 158.31793753 -100 156.5 C-102.9989119 154.00090675 -105.39459114 151.22714368 -107.9296875 148.26953125 C-110.72451401 145.04324534 -113.60482976 142.09105097 -117 139.5 C-119.99991995 137.00006671 -122.39639726 134.2266136 -124.9296875 131.265625 C-127.0481094 128.82504677 -129.31016033 126.56642284 -131.625 124.3125 C-134.13590797 121.80159203 -136.6452539 119.29173975 -139.125 116.75 C-141.51890968 114.31793753 -141.51890968 114.31793753 -144 112.5 C-146.99991995 110.00006671 -149.39639726 107.2266136 -151.9296875 104.265625 C-154.0481094 101.82504677 -156.31016033 99.56642284 -158.625 97.3125 C-163.625 92.3125 -168.625 87.3125 -173.625 82.3125 C-174.511875 81.44625 -175.39875 80.58 -176.3125 79.6875 C-178.625 77.3125 -178.625 77.3125 -180.625 74.3125 C-172.52072156 65.80746054 -164.0542661 58.31517386 -154.625 51.3125 C-154.04991699 50.88195313 -153.47483398 50.45140625 -152.88232422 50.0078125 C-144.14755391 43.49926223 -135.10614384 37.67209623 -125.625 32.3125 C-124.91778809 31.9103125 -124.21057617 31.508125 -123.48193359 31.09375 C-100.34654164 18.0683259 -75.17537591 9.31948539 -49.1875 4 C-48.46860596 3.85264404 -47.74971191 3.70528809 -47.0090332 3.5534668 C-31.36274391 0.57960912 -15.88931954 -0.06050362 0 0 Z " fill="#EFEFEF" transform="translate(255.625,-0.3125)"/>
<path d="M0 0 C1.9375 0.8125 1.9375 0.8125 4 2 C4.495 3.485 4.495 3.485 5 5 C5.99 5.495 5.99 5.495 7 6 C7.99 6.495 7.99 6.495 9 7 C9.495 8.485 9.495 8.485 10 10 C10.99 10.495 10.99 10.495 12 11 C12.99 11.495 12.99 11.495 14 12 C14.495 13.485 14.495 13.485 15 15 C15.99 15.495 15.99 15.495 17 16 C17.66 16.33 18.32 16.66 19 17 C19.495 18.485 19.495 18.485 20 20 C20.66 20.33 21.32 20.66 22 21 C22.66 21.33 23.32 21.66 24 22 C24.495 23.485 24.495 23.485 25 25 C25.66 25.33 26.32 25.66 27 26 C27.66 26.33 28.32 26.66 29 27 C29.495 28.485 29.495 28.485 30 30 C30.66 30.33 31.32 30.66 32 31 C32.66 31.33 33.32 31.66 34 32 C34.33 32.99 34.66 33.98 35 35 C35.639375 35.309375 36.27875 35.61875 36.9375 35.9375 C39.50051718 37.25784218 39.7407337 38.4814674 41 41 C42.32520503 41.68268138 43.65812182 42.3507041 45 43 C45.33 43.99 45.66 44.98 46 46 C46.66 46.33 47.32 46.66 48 47 C48.66 47.33 49.32 47.66 50 48 C50.33 48.99 50.66 49.98 51 51 C51.639375 51.309375 52.27875 51.61875 52.9375 51.9375 C55.50051718 53.25784218 55.7407337 54.4814674 57 57 C58.32520503 57.68268138 59.65812182 58.3507041 61 59 C61.33 59.99 61.66 60.98 62 62 C62.639375 62.309375 63.27875 62.61875 63.9375 62.9375 C66.50051718 64.25784218 66.7407337 65.4814674 68 68 C68.66 68.33 69.32 68.66 70 69 C72.52845528 70.26422764 72.76422764 71.52845528 74 74 C75.32520503 74.68268138 76.65812182 75.3507041 78 76 C78.33 76.99 78.66 77.98 79 79 C79.9590625 79.4640625 79.9590625 79.4640625 80.9375 79.9375 C83.50051718 81.25784218 83.7407337 82.4814674 85 85 C85.66 85.33 86.32 85.66 87 86 C89.52845528 87.26422764 89.76422764 88.52845528 91 91 C91.66 91.33 92.32 91.66 93 92 C95.52845528 93.26422764 95.76422764 94.52845528 97 97 C97.66 97.33 98.32 97.66 99 98 C101.52845528 99.26422764 101.76422764 100.52845528 103 103 C103.66 103.33 104.32 103.66 105 104 C107.52845528 105.26422764 107.76422764 106.52845528 109 109 C109.66 109.33 110.32 109.66 111 110 C113.52845528 111.26422764 113.76422764 112.52845528 115 115 C115.66 115.33 116.32 115.66 117 116 C119.52845528 117.26422764 119.76422764 118.52845528 121 121 C121.59296875 121.28875 122.1859375 121.5775 122.796875 121.875 C125.44058386 123.22497899 127.16218069 124.89671536 129.25 127 C129.95640625 127.70125 130.6628125 128.4025 131.390625 129.125 C133 131 133 131 133 133 C133.57234375 133.2475 134.1446875 133.495 134.734375 133.75 C137.35010611 135.19316199 139.14773456 136.88216222 141.25 139 C142.30960937 140.051875 142.30960937 140.051875 143.390625 141.125 C145 143 145 143 145 145 C145.57234375 145.2475 146.1446875 145.495 146.734375 145.75 C149.35010611 147.19316199 151.14773456 148.88216222 153.25 151 C154.30960937 152.051875 154.30960937 152.051875 155.390625 153.125 C157 155 157 155 157 157 C157.57234375 157.2475 158.1446875 157.495 158.734375 157.75 C161.35010611 159.19316199 163.14773456 160.88216222 165.25 163 C166.30960937 164.051875 166.30960937 164.051875 167.390625 165.125 C169 167 169 167 169 169 C169.56203125 169.23460937 170.1240625 169.46921875 170.703125 169.7109375 C173.54635891 171.30663 175.48098127 173.28924543 177.75 175.625 C178.94882812 176.85089844 178.94882812 176.85089844 180.171875 178.1015625 C180.77515625 178.72804687 181.3784375 179.35453125 182 180 C180.46781315 183.63061667 178.2816856 185.9863773 175.5 188.75 C174.30890625 189.94882812 174.30890625 189.94882812 173.09375 191.171875 C171 193 171 193 169 193 C168.74476563 193.58136719 168.48953125 194.16273438 168.2265625 194.76171875 C166.87497276 197.22815481 165.38307306 198.84842854 163.375 200.8125 C162.74335938 201.43769531 162.11171875 202.06289063 161.4609375 202.70703125 C160.16686929 203.91277417 158.86607304 205.11313111 157.51489067 206.25450516 C150.14865746 212.48989936 143.4424685 219.41737534 136.62939453 226.24121094 C135.18340869 227.68584014 133.73721054 229.13025688 132.29081726 230.57447815 C128.38192065 234.47883373 124.47617218 238.38632418 120.57113504 242.29453945 C116.48030973 246.38790317 112.38703764 250.47881902 108.29415894 254.57012939 C101.42803061 261.43444138 94.56400716 268.30085283 87.70117188 275.16845703 C79.76291267 283.11216867 71.82104279 291.05225682 63.87730896 298.99049354 C57.05325182 305.81001723 50.23113963 312.63148201 43.41065872 319.45458245 C39.3383871 323.52841417 35.2654402 327.60156458 31.19073868 331.672966 C27.36519263 335.49562962 23.54208925 339.3207193 19.72088051 343.14771843 C18.31643698 344.55348708 16.91113647 345.95840013 15.5049305 347.36240578 C13.59009185 349.27452353 11.6783415 351.1896759 9.7673645 353.10565186 C9.20667774 353.66410789 8.64599098 354.22256393 8.06831372 354.79794288 C5.76845509 357.10953573 3.81582235 359.27626648 2 362 C-8.53832471 357.48700445 -16.30799488 344.9556906 -23 336 C-23.43344727 335.4220166 -23.86689453 334.8440332 -24.31347656 334.24853516 C-30.81851621 325.51678936 -36.64266231 316.47714848 -42 307 C-42.4021875 306.29278809 -42.804375 305.58557617 -43.21875 304.85693359 C-56.2441741 281.72154164 -64.99301461 256.55037591 -70.3125 230.5625 C-70.45985596 229.84360596 -70.60721191 229.12471191 -70.7590332 228.3840332 C-73.73289088 212.73774391 -74.37300362 197.26431954 -74.3125 181.375 C-74.31034485 180.35709381 -74.3081897 179.33918762 -74.30596924 178.29043579 C-74.25629854 163.68136477 -74.00540191 149.34924147 -71 135 C-70.80132324 134.02514648 -70.60264648 133.05029297 -70.39794922 132.04589844 C-59.83555855 81.55213272 -36.56101197 36.48668723 0 0 Z " fill="#0152B4" transform="translate(74,75)"/>
</svg>
