<?xml version="1.0" encoding="UTF-8"?>
<svg version="1.1" xmlns="http://www.w3.org/2000/svg" width="512" height="512">
<path d="M0 0 C0.76454498 -0.00979385 1.52908997 -0.01958771 2.31680298 -0.02967834 C20.14036594 -0.21073288 37.33015999 0.18439798 54.78515625 4.23828125 C55.68927246 4.44727051 56.59338867 4.65625977 57.52490234 4.87158203 C88.77250076 12.38925078 118.42013341 28.16177069 141.78515625 50.23828125 C143.13524083 51.38892152 144.48927214 52.53495085 145.84765625 53.67578125 C178.61309107 82.52502864 198.70526268 129.42703611 202.78515625 172.23828125 C202.93247143 175.10855875 202.97138057 177.97392152 202.98828125 180.84765625 C202.99534088 181.64802307 203.00240051 182.44838989 203.00967407 183.27301025 C203.23515979 216.34451596 203.23515979 216.34451596 199.78515625 231.23828125 C199.59179688 232.12225586 199.3984375 233.00623047 199.19921875 233.91699219 C189.11382023 279.25459388 162.55175767 322.7372293 123.78515625 349.23828125 C123.10146973 349.70685547 122.4177832 350.17542969 121.71337891 350.65820312 C92.38498191 370.48984726 57.3473351 384.09526003 21.5703125 384.4765625 C20.80558624 384.48631104 20.04085999 384.49605957 19.25296021 384.50610352 C-4.69811143 384.74829958 -27.4100275 383.1408272 -50.21484375 375.23828125 C-51.20073486 374.90207764 -51.20073486 374.90207764 -52.20654297 374.55908203 C-79.73695936 365.05589079 -103.23159589 350.33607311 -124.21484375 330.23828125 C-124.71902832 329.76132812 -125.22321289 329.284375 -125.74267578 328.79296875 C-157.92861588 298.2311367 -180.19265967 251.74237132 -181.37597656 207.0456543 C-181.39542261 205.61383316 -181.40923176 204.18192653 -181.41796875 202.75 C-181.42502838 201.97328949 -181.43208801 201.19657898 -181.43936157 200.39633179 C-181.66535533 168.23738004 -181.66535533 168.23738004 -178.21484375 153.23828125 C-178.02148438 152.35285645 -177.828125 151.46743164 -177.62890625 150.55517578 C-167.54223579 105.2196392 -140.9798317 61.73823022 -102.21484375 35.23828125 C-101.18931396 34.53541992 -101.18931396 34.53541992 -100.14306641 33.81835938 C-70.81452033 13.98661443 -35.77713707 0.38156803 0 0 Z " fill="#FE0000" transform="translate(245.21484375,63.76171875)"/>
<path d="M0 0 C6.5875822 0 11.43988451 0.83802111 17.6875 2.5 C18.69844727 2.76844727 19.70939453 3.03689453 20.75097656 3.31347656 C49.80920321 11.30789948 77.20143071 26.08686583 99 47 C100.34937779 48.15146905 101.70344093 49.29747375 103.0625 50.4375 C130.14261553 74.28094833 151.75283999 114.31931195 157 150 C157 152.31 157 154.62 157 157 C105.19 157 53.38 157 0 157 C0 105.19 0 53.38 0 0 Z " fill="#FDFDFE" transform="translate(288,67)"/>
<path d="M0 0 C-0.66 0 -1.32 0 -2 0 C-2 51.81 -2 103.62 -2 157 C-53.81 157 -105.62 157 -159 157 C-159.495 157.99 -159.495 157.99 -160 159 C-155.83865782 112.61049231 -127.72499276 68.81475119 -92.75390625 39.18359375 C-89.58043625 36.66503093 -86.34298459 34.28528179 -83 32 C-81.97447021 31.29713867 -81.97447021 31.29713867 -80.92822266 30.58007812 C-59.72215958 16.24069584 -36.88725853 6.2460668 -11.9375 0.5 C-11.19346924 0.32742676 -10.44943848 0.15485352 -9.68286133 -0.02294922 C-6.19495108 -0.76585417 -3.385549 -1.33663233 0 0 Z " fill="#FDFCFD" transform="translate(226,67)"/>
<path d="M0 0 C51.81 0 103.62 0 157 0 C157 6.53818983 156.20041261 11.36014506 154.5625 17.5625 C154.16478394 19.06901123 154.16478394 19.06901123 153.7590332 20.60595703 C142.47287594 61.58191183 116.34067228 100.84093117 81 125 C80.31631348 125.46857422 79.63262695 125.93714844 78.92822266 126.41992188 C56.55014435 141.55181215 27.6797193 157 0 157 C0 105.19 0 53.38 0 0 Z " fill="#FDFDFD" transform="translate(288,288)"/>
<path d="M0 0 C51.81 0 103.62 0 157 0 C157 51.81 157 103.62 157 157 C117.05243166 157 77.16921454 129.10552385 49.8125 102.125 C43.2362192 95.50380877 37.27706279 88.71945922 32 81 C31.29713867 79.97447021 31.29713867 79.97447021 30.58007812 78.92822266 C15.44818785 56.55014435 0 27.6797193 0 0 Z " fill="#FDFDFD" transform="translate(67,288)"/>
<path d="M0 0 C0 34.32 0 68.64 0 104 C-4.72181851 99.95272699 -9.21202951 95.92932992 -13.57788086 91.53564453 C-14.19337799 90.92029343 -14.80887512 90.30494232 -15.44302368 89.67094421 C-17.45267998 87.6605979 -19.45878274 85.64674589 -21.46484375 83.6328125 C-22.86709544 82.22869339 -24.26956981 80.82479664 -25.67225647 79.42111206 C-29.34541268 75.74415621 -33.01555454 72.06420609 -36.68505859 68.38360596 C-40.43729767 64.62109763 -44.19240493 60.86145421 -47.94726562 57.1015625 C-55.30097336 49.73716251 -62.65149708 42.36959333 -70 35 C-68.0274436 30.44864005 -64.77383867 28.50658343 -60.6875 25.9375 C-59.93839355 25.4621582 -59.18928711 24.98681641 -58.41748047 24.49707031 C-19.12714317 0 -19.12714317 0 0 0 Z " fill="#00008C" transform="translate(208,70)"/>
<path d="M0 0 C4.72181851 4.04727301 9.21202951 8.07067008 13.57788086 12.46435547 C14.50112656 13.38738213 14.50112656 13.38738213 15.44302368 14.32905579 C17.45267998 16.3394021 19.45878274 18.35325411 21.46484375 20.3671875 C22.86709544 21.77130661 24.26956981 23.17520336 25.67225647 24.57888794 C29.34541268 28.25584379 33.01555454 31.93579391 36.68505859 35.61639404 C40.43729767 39.37890237 44.19240493 43.13854579 47.94726562 46.8984375 C55.30097336 54.26283749 62.65149708 61.63040667 70 69 C68.57777003 72.0078098 67.56514182 73.62419028 64.75390625 75.4453125 C64.09165039 75.87739014 63.42939453 76.30946777 62.74707031 76.75463867 C62.02616211 77.20685791 61.30525391 77.65907715 60.5625 78.125 C59.80678711 78.60364502 59.05107422 79.08229004 58.27246094 79.57543945 C19.11275399 104 19.11275399 104 0 104 C0 69.68 0 35.36 0 0 Z " fill="#00008C" transform="translate(304,338)"/>
<path d="M0 0 C34.32 0 68.64 0 104 0 C99.95272699 4.72181851 95.92932992 9.21202951 91.53564453 13.57788086 C90.92029343 14.19337799 90.30494232 14.80887512 89.67094421 15.44302368 C87.6605979 17.45267998 85.64674589 19.45878274 83.6328125 21.46484375 C82.22869339 22.86709544 80.82479664 24.26956981 79.42111206 25.67225647 C75.74415621 29.34541268 72.06420609 33.01555454 68.38360596 36.68505859 C64.62109763 40.43729767 60.86145421 44.19240493 57.1015625 47.94726562 C49.73716251 55.30097336 42.36959333 62.65149708 35 70 C31.9921902 68.57777003 30.37580972 67.56514182 28.5546875 64.75390625 C28.12260986 64.09165039 27.69053223 63.42939453 27.24536133 62.74707031 C26.79314209 62.02616211 26.34092285 61.30525391 25.875 60.5625 C25.39635498 59.80678711 24.91770996 59.05107422 24.42456055 58.27246094 C0 19.11275399 0 19.11275399 0 0 Z " fill="#00008C" transform="translate(70,304)"/>
<path d="M0 0 C25.31026913 3.61575273 50.13009654 17.26965976 70 33 C68.72197626 35.80059428 67.39772547 37.85192626 65.22264099 40.02459717 C64.6575885 40.59384415 64.09253601 41.16309113 63.51036072 41.74958801 C62.89262283 42.36170639 62.27488495 42.97382477 61.63842773 43.60449219 C60.98625275 44.25856552 60.33407776 44.91263885 59.66213989 45.58653259 C57.50747873 47.74489552 55.34570728 49.89597944 53.18359375 52.046875 C51.68632684 53.54294997 50.18942921 55.0393946 48.69288635 56.53619385 C45.55786356 59.66965296 42.41950972 62.79972383 39.27856445 65.92724609 C35.24241541 69.94636885 31.21291736 73.97207994 27.18565273 78.000103 C24.09686163 81.08862294 21.00547703 84.17453554 17.91319466 87.25955963 C16.42575842 88.74380329 14.93893626 90.22866259 13.45272636 91.71413422 C11.38171825 93.78298707 9.30745908 95.8485208 7.23217773 97.91308594 C6.61241562 98.53330124 5.9926535 99.15351654 5.35411072 99.79252625 C1.11447594 104 1.11447594 104 0 104 C0 69.68 0 35.36 0 0 Z " fill="#01018C" transform="translate(304,70)"/>
<path d="M0 0 C34.32 0 68.64 0 104 0 C100.3577056 25.49606081 86.21907256 49.66553979 71 70 C65.46460949 65.36719546 60.38081555 60.45597558 55.33789062 55.29882812 C52.45019868 52.3722447 49.52974396 49.55937176 46.39819336 46.89379883 C41.39097719 42.53432552 36.718667 37.86229364 32.03125 33.1640625 C31.11033569 32.24410492 30.18942139 31.32414734 29.24060059 30.37631226 C27.30949132 28.44666452 25.38017067 26.51525155 23.45214844 24.58251953 C20.97618242 22.1008007 18.4956773 19.62367446 16.01386261 17.14780617 C13.6422363 14.78064264 11.27440525 12.40969861 8.90625 10.0390625 C8.01264771 9.14748444 7.11904541 8.25590637 6.19836426 7.33731079 C5.38331421 6.51910858 4.56826416 5.70090637 3.72851562 4.85791016 C3.00651978 4.13511871 2.28452393 3.41232727 1.54064941 2.66763306 C0 1 0 1 0 0 Z " fill="#00008C" transform="translate(338,304)"/>
<path d="M0 0 C16.8190046 16.61449195 28.60735444 43.16968272 34 66 C34 67.32 34 68.64 34 70 C0.01 70 -33.98 70 -69 70 C-64.95272699 65.27818149 -60.92932992 60.78797049 -56.53564453 56.42211914 C-55.92029343 55.80662201 -55.30494232 55.19112488 -54.67094421 54.55697632 C-52.6605979 52.54732002 -50.64674589 50.54121726 -48.6328125 48.53515625 C-47.22869339 47.13290456 -45.82479664 45.73043019 -44.42111206 44.32774353 C-40.74415621 40.65458732 -37.06420609 36.98444546 -33.38360596 33.31494141 C-29.62109763 29.56270233 -25.86145421 25.80759507 -22.1015625 22.05273438 C-14.73716251 14.69902664 -7.36959333 7.34850292 0 0 Z " fill="#00008C" transform="translate(408,138)"/>
<path d="M0 0 C4.73723149 3.95667578 9.22223354 8.07720437 13.57788086 12.44848633 C14.19337799 13.06223114 14.80887512 13.67597595 15.44302368 14.30831909 C17.45279976 16.31373527 19.45894527 18.32273712 21.46484375 20.33203125 C22.86716861 21.7336819 24.26964183 23.13518413 25.67225647 24.5365448 C28.59799157 27.46081134 31.52192423 30.38686498 34.44458008 33.31420898 C38.19964823 37.07500569 41.95923053 40.83125277 45.72014523 44.58620167 C48.61028793 47.47274299 51.49805976 50.36164666 54.38510323 53.25128746 C55.77152574 54.63837878 57.15869622 56.0247229 58.54661369 57.41031837 C60.47612493 59.33730664 62.40242993 61.26744218 64.32788086 63.19848633 C64.90598007 63.77456131 65.48407928 64.35063629 66.07969666 64.94416809 C70 68.88573122 70 68.88573122 70 70 C36.01 70 2.02 70 -33 70 C-29.3577056 44.50393919 -15.21907256 20.33446021 0 0 Z " fill="#00008C" transform="translate(103,138)"/>
<path d="M0 0 C0 33.99 0 67.98 0 103 C-25.14172191 99.40832544 -50.25743804 85.62952822 -70 70 C-66.04332422 65.26276851 -61.92279563 60.77776646 -57.55151367 56.42211914 C-56.93776886 55.80662201 -56.32402405 55.19112488 -55.69168091 54.55697632 C-53.68626473 52.54720024 -51.67726288 50.54105473 -49.66796875 48.53515625 C-48.2663181 47.13283139 -46.86481587 45.73035817 -45.4634552 44.32774353 C-42.53918866 41.40200843 -39.61313502 38.47807577 -36.68579102 35.55541992 C-32.92499431 31.80035177 -29.16874723 28.04076947 -25.41379833 24.27985477 C-22.52725701 21.38971207 -19.63835334 18.50194024 -16.74871254 15.61489677 C-15.36162122 14.22847426 -13.9752771 12.84130378 -12.58968163 11.45338631 C-10.66269336 9.52387507 -8.73255782 7.59757007 -6.80151367 5.67211914 C-6.22543869 5.09401993 -5.64936371 4.51592072 -5.05583191 3.92030334 C-1.11426878 0 -1.11426878 0 0 0 Z " fill="#00008C" transform="translate(208,339)"/>
<path d="M0 0 C1.54132938 0.93817711 1.54132938 0.93817711 3.18458557 2.44564819 C3.80059191 3.00637402 4.41659824 3.56709984 5.05127144 4.14481735 C8.41951167 7.35137005 11.75196542 10.58737906 15.04663086 13.86962891 C15.81818512 14.63461197 16.58973938 15.39959503 17.38467407 16.1877594 C19.91428976 18.69780189 22.43999343 21.21172703 24.96484375 23.7265625 C25.82999666 24.58763988 26.69514957 25.44871727 27.58651924 26.33588791 C32.15415199 30.88274124 36.71855965 35.43280492 41.28051758 39.98535156 C45.05861509 43.75454078 48.84237902 47.51787157 52.63208008 51.27539062 C57.21364943 55.81867027 61.78546139 60.3715469 66.35019112 64.93174362 C68.09123051 66.66789963 69.83565844 68.40066427 71.58347893 70.12999344 C74.01814118 72.5404638 76.4400333 74.96308397 78.85913086 77.38916016 C79.58684189 78.10406113 80.31455292 78.8189621 81.0643158 79.55552673 C81.71891785 80.2170726 82.3735199 80.87861847 83.04795837 81.56021118 C83.62143981 82.13130426 84.19492125 82.70239735 84.78578091 83.29079628 C86 85 86 85 86 89 C77.35866782 90.35324626 68.71305431 91.43864237 61.27581787 86.05667114 C56.31876058 81.86729244 51.91844808 77.1453352 47.4921875 72.41015625 C45.82613976 70.70419201 44.15548894 69.00271224 42.48049927 67.30552673 C38.11201847 62.85554831 33.80655859 58.34932547 29.51257324 53.82757568 C25.1157001 49.21815411 20.66373372 44.66265587 16.21484375 40.10351562 C11.22587113 34.98601909 6.2432623 29.8633676 1.30099487 24.70069885 C0.55356018 23.92061462 -0.19387451 23.1405304 -0.96395874 22.33680725 C-2.3617797 20.87597571 -3.75734416 19.41298049 -5.15026855 17.94747925 C-5.76359039 17.30662888 -6.37691223 16.6657785 -7.00881958 16.00550842 C-7.80776484 15.16621591 -7.80776484 15.16621591 -8.62285042 14.30996799 C-9.98669162 12.88481335 -9.98669162 12.88481335 -12 12 C-10.6118265 8.87142986 -8.98898122 6.71810826 -6.5625 4.3125 C-5.96566406 3.71050781 -5.36882812 3.10851562 -4.75390625 2.48828125 C-3 1 -3 1 0 0 Z " fill="#FF0404" transform="translate(122,119)"/>
<path d="M0 0 C7.44847123 -1.18753501 15.54496359 -2.36717517 22.45445251 1.3041687 C28.57672604 5.74595773 33.64272026 11.34599143 38.796875 16.84375 C40.49021577 18.57445795 42.18807477 20.30075562 43.89019775 22.02282715 C48.32860667 26.53710047 52.70363602 31.10811942 57.06756592 35.6942749 C61.54301413 40.3754253 66.07662229 44.99950274 70.60546875 49.62890625 C79.46100774 58.69805019 88.25267344 67.82650052 97 77 C93.95577773 82.42841405 91.00613773 86.27450216 86 90 C74.77485832 78.8682407 63.56115064 67.72509992 52.36097717 56.56822586 C47.16043898 51.38832543 41.9562083 46.21223856 36.74316406 41.04492188 C32.20023776 36.54182615 27.66435279 32.03177676 23.13683414 27.51318812 C20.73860116 25.1201763 18.33695578 22.73082771 15.92684937 20.34976959 C13.24008551 17.69189497 10.56595289 15.02191471 7.89453125 12.34863281 C7.09036774 11.5588504 6.28620422 10.76906799 5.45767212 9.95535278 C4.73405487 9.22623688 4.01043762 8.49712097 3.26489258 7.74591064 C2.63069901 7.11540424 1.99650543 6.48489784 1.34309387 5.83528519 C0 4 0 4 0 0 Z " fill="#FE0505" transform="translate(304,304)"/>
<path d="M0 0 C1.18753501 7.44847123 2.36717517 15.54496359 -1.3041687 22.45445251 C-5.74595773 28.57672604 -11.34599143 33.64272026 -16.84375 38.796875 C-18.57445795 40.49021577 -20.30075562 42.18807477 -22.02282715 43.89019775 C-26.53710047 48.32860667 -31.10811942 52.70363602 -35.6942749 57.06756592 C-40.3754253 61.54301413 -44.99950274 66.07662229 -49.62890625 70.60546875 C-58.69805019 79.46100774 -67.82650052 88.25267344 -77 97 C-78.44037669 96.06692579 -79.87718985 95.12834923 -81.3125 94.1875 C-82.11300781 93.66542969 -82.91351563 93.14335937 -83.73828125 92.60546875 C-87.65065789 89.82828947 -87.65065789 89.82828947 -89 88 C-88.80808201 84.49950292 -87.12020542 82.74204367 -84.71769714 80.33001709 C-84.01531418 79.61772949 -83.31293121 78.90544189 -82.58926392 78.17156982 C-81.81368134 77.40048889 -81.03809875 76.62940796 -80.23901367 75.83496094 C-79.0194825 74.60513489 -79.0194825 74.60513489 -77.77531433 73.35046387 C-75.0805299 70.63734886 -72.37476995 67.93549769 -69.66796875 65.234375 C-68.2683983 63.83139785 -66.8688313 62.42841711 -65.46982461 61.02487779 C-61.07191251 56.61291899 -56.66624317 52.2088144 -52.25561523 47.80957031 C-47.70351652 43.26896116 -43.16435877 38.7157057 -38.63141841 34.15597701 C-34.73966669 30.24208869 -30.84022431 26.33598367 -26.93445188 22.43608689 C-24.60146796 20.10647767 -22.27236401 17.77321987 -19.94881248 15.43419647 C-17.35837628 12.82894759 -14.75560691 10.23668795 -12.14916992 7.64746094 C-11.37966003 6.86828308 -10.61015015 6.08910522 -9.81732178 5.28631592 C-9.10647934 4.58530762 -8.3956369 3.88429932 -7.66325378 3.16204834 C-7.04879489 2.54779873 -6.43433599 1.93354912 -5.80125713 1.30068588 C-4 0 -4 0 0 0 Z " fill="#FE0505" transform="translate(208,304)"/>
<path d="M0 0 C2.5 1.375 2.5 1.375 5 3 C5 3.66 5 4.32 5 5 C5.598125 5.268125 6.19625 5.53625 6.8125 5.8125 C8.97224808 6.98493467 10.35790256 8.19369282 12 10 C10.61828363 13.10211654 9.02480276 15.22938626 6.63540649 17.63201904 C5.94006302 18.33589249 5.24471954 19.03976593 4.52830505 19.76496887 C3.76566849 20.52669907 3.00303192 21.28842926 2.21728516 22.07324219 C1.0121653 23.28843788 1.0121653 23.28843788 -0.21730042 24.52818298 C-2.87653243 27.20642524 -5.5432593 29.87704718 -8.2109375 32.546875 C-10.05952728 34.40188886 -11.90796481 36.25705445 -13.7562561 38.11236572 C-17.6310594 41.99995073 -21.51074457 45.88261975 -25.39257812 49.76318359 C-29.88131478 54.25071703 -34.35875961 58.74930256 -38.83108938 63.25318217 C-43.1344037 67.58576979 -47.44868875 71.90727129 -51.76726151 76.22464752 C-53.60375647 78.06350891 -55.43699471 79.90562865 -57.2669487 81.75099945 C-59.82144676 84.32500133 -62.38819468 86.88612825 -64.95849609 89.44433594 C-65.7170842 90.21416306 -66.4756723 90.98399017 -67.25724792 91.77714539 C-67.95823105 92.46973953 -68.65921417 93.16233368 -69.38143921 93.87591553 C-69.98722494 94.48279079 -70.59301067 95.08966606 -71.21715355 95.71493149 C-73 97 -73 97 -77 97 C-78.18753501 89.55152877 -79.36717517 81.45503641 -75.6958313 74.54554749 C-71.25404227 68.42327396 -65.65400857 63.35727974 -60.15625 58.203125 C-58.42554205 56.50978423 -56.69924438 54.81192523 -54.97717285 53.10980225 C-50.46289953 48.67139333 -45.89188058 44.29636398 -41.3057251 39.93243408 C-36.6245747 35.45698587 -32.00049726 30.92337771 -27.37109375 26.39453125 C-18.30194981 17.53899226 -9.17349948 8.74732656 0 0 Z " fill="#FF0404" transform="translate(381,111)"/>
<path d="M0 0 C0.66 0.33 1.32 0.66 2 1 C-3 6 -8 11 -13 16 C-13.99 15.67 -14.98 15.34 -16 15 C-5.62642369 4.44191344 -5.62642369 4.44191344 0 0 Z " fill="#C9C2DF" transform="translate(136,104)"/>
<path d="M0 0 C0.99 0.33 1.98 0.66 3 1 C1.56877218 2.48523642 0.12979111 3.96300462 -1.3125 5.4375 C-2.11300781 6.26121094 -2.91351563 7.08492188 -3.73828125 7.93359375 C-6 10 -6 10 -9 11 C-7.59155282 7.78475695 -5.89655214 5.67816132 -3.375 3.25 C-2.74335937 2.63640625 -2.11171875 2.0228125 -1.4609375 1.390625 C-0.73777344 0.70226562 -0.73777344 0.70226562 0 0 Z " fill="#D54960" transform="translate(119,120)"/>
</svg>
