<?xml version="1.0" encoding="UTF-8"?>
<svg version="1.1" xmlns="http://www.w3.org/2000/svg" width="500" height="500">
<path d="M0 0 C1.20970459 0.00523682 2.41940918 0.01047363 3.66577148 0.01586914 C4.97094727 0.0190918 6.27612305 0.02231445 7.62084961 0.02563477 C9.00952213 0.03399138 10.39819401 0.04245634 11.78686523 0.05102539 C13.17944179 0.05603873 14.57202005 0.06060193 15.96459961 0.06469727 C19.38456394 0.07653105 22.80444367 0.09301659 26.22436523 0.11352539 C28.90013406 5.26495213 31.13398259 10.30325799 32.97436523 15.80102539 C38.2549755 31.13336846 44.23278792 46.2108623 50.16699219 61.29956055 C52.23253841 66.55450495 54.25744533 71.82083555 56.22436523 77.11352539 C60.62814277 65.89876073 64.92434868 54.6482066 69.11474609 43.35180664 C69.47576416 42.38243164 69.83678223 41.41305664 70.20874023 40.41430664 C70.52552734 39.56006104 70.84231445 38.70581543 71.16870117 37.82568359 C72.44125649 34.55629944 73.8423725 31.33817511 75.22436523 28.11352539 C85.12436523 28.11352539 95.02436523 28.11352539 105.22436523 28.11352539 C104.36387734 32.41596489 103.20636084 36.35538651 101.73999023 40.46508789 C101.47945862 41.19861481 101.218927 41.93214172 100.95050049 42.68789673 C97.5993774 52.00193785 93.89984003 61.1803007 90.22232056 70.36901855 C84.09648001 85.6817474 78.04254317 101.00536927 72.39306641 116.50073242 C68.01062897 128.50706092 63.29850618 140.38248393 58.22436523 152.11352539 C56.90436523 152.11352539 55.58436523 152.11352539 54.22436523 152.11352539 C51.46594158 145.66906659 48.84457558 139.18792922 46.41186523 132.61352539 C44.19027457 126.61681437 41.86644492 120.66922307 39.47436523 114.73852539 C31.76919333 95.60973728 24.40797484 76.33134524 17.34155273 56.95727539 C17.02081787 56.07998779 16.70008301 55.2027002 16.36962891 54.29882812 C15.74216721 52.58054594 15.11723437 50.8613377 14.49511719 49.14111328 C13.35299118 45.34108155 13.35299118 45.34108155 11.22436523 42.11352539 C6.74174517 53.40691322 2.28940891 64.69317046 -1.67651367 76.1796875 C-3.4715225 81.34515817 -5.46683067 86.40691316 -7.53295898 91.46899414 C-9.35664169 95.97331337 -11.00194737 100.5207328 -12.58813477 105.11352539 C-18.08642055 120.98391344 -24.50088642 136.53738539 -30.77563477 152.11352539 C-32.09563477 152.11352539 -33.41563477 152.11352539 -34.77563477 152.11352539 C-38.39806237 145.31104037 -41.03571814 138.29264434 -43.65063477 131.05102539 C-46.4627206 123.30226523 -49.35317056 115.60280057 -52.44000244 107.95884705 C-55.55340674 100.22520762 -58.46808563 92.4170814 -61.40063477 84.61352539 C-64.99338213 75.06517805 -68.59713195 65.52273649 -72.31860352 56.02368164 C-72.59740356 55.31065887 -72.87620361 54.59763611 -73.16345215 53.86300659 C-74.4787787 50.50082329 -75.80014211 47.14123086 -77.1315918 43.78540039 C-77.59807129 42.5955957 -78.06455078 41.40579102 -78.54516602 40.17993164 C-78.95355713 39.14811768 -79.36194824 38.11630371 -79.78271484 37.05322266 C-80.77563477 34.11352539 -80.77563477 34.11352539 -81.77563477 28.11352539 C-71.87563477 28.11352539 -61.97563477 28.11352539 -51.77563477 28.11352539 C-49.83907893 32.63215567 -47.98396612 37.0934689 -46.25219727 41.68383789 C-45.78813477 42.91102539 -45.32407227 44.13821289 -44.84594727 45.40258789 C-44.36410201 46.68120568 -43.8823314 47.9598516 -43.40063477 49.23852539 C-42.4559256 51.74135763 -41.51037532 54.24387161 -40.56469727 56.74633789 C-40.10482422 57.96353516 -39.64495117 59.18073242 -39.17114258 60.43481445 C-37.05922071 66.00207106 -34.92017659 71.55875304 -32.77563477 77.11352539 C-32.55125732 76.49461426 -32.32687988 75.87570312 -32.09570312 75.23803711 C-25.99088757 58.45473597 -19.5621269 41.81768203 -12.95507812 25.22631836 C-12.33518028 23.66796197 -11.71546508 22.1095329 -11.09594727 20.55102539 C-10.80142166 19.81071075 -10.50689606 19.07039612 -10.20344543 18.30764771 C-8.19517991 13.23641323 -6.2941028 8.13538464 -4.49780273 2.98461914 C-3.37419877 0.07342889 -3.27317484 0.13387513 0 0 Z " fill="#FEFEFE" transform="translate(302.775634765625,206.886474609375)"/>
<path d="M0 0 C7.95505913 -0.09347111 15.90988152 -0.16414957 23.8653574 -0.20724869 C27.56107304 -0.22795417 31.25640778 -0.25595099 34.9519043 -0.30175781 C38.53109815 -0.34583564 42.1099302 -0.36926444 45.68937492 -0.37950897 C47.69144013 -0.39028866 49.69336364 -0.4214104 51.69520569 -0.45318604 C66.63062172 -0.45676677 80.45652813 2.92517122 91.75 13.1875 C100.99884537 23.15788649 103.49319484 35.0139237 103.1875 48.2734375 C102.25964676 61.76597 97.95509385 70.73944758 88 80 C79.6547619 86 79.6547619 86 76 86 C78.65826515 92.79233828 81.49118811 99.48096827 84.5 106.125 C84.87769531 106.96675781 85.25539063 107.80851562 85.64453125 108.67578125 C87.6408315 113.10057045 89.71603257 117.46679376 91.90625 121.79833984 C94.27802056 126.57258693 96.50835718 131.41369975 98.75 136.25 C99.25660156 137.32507813 99.76320313 138.40015625 100.28515625 139.5078125 C100.76339844 140.54164063 101.24164063 141.57546875 101.734375 142.640625 C102.16975586 143.57422852 102.60513672 144.50783203 103.05371094 145.46972656 C104 148 104 148 104 152 C98.62059943 153.58871417 93.06242609 153.2653608 87.5 153.3125 C86.35917969 153.34150391 85.21835938 153.37050781 84.04296875 153.40039062 C82.94597656 153.40876953 81.84898437 153.41714844 80.71875 153.42578125 C79.21731445 153.44765503 79.21731445 153.44765503 77.68554688 153.4699707 C74.18780807 152.85786641 73.16873818 151.77873201 71 149 C69.47949219 146.26123047 69.47949219 146.26123047 68.046875 143.1171875 C67.51384766 141.95815918 66.98082031 140.79913086 66.43164062 139.60498047 C65.87087484 138.36175236 65.31033227 137.11842355 64.75 135.875 C64.16933226 134.60400369 63.58794764 133.33333465 63.00585938 132.06298828 C59.46122305 124.30872462 55.97935102 116.52582223 52.55371094 108.71826172 C50.46597511 103.9759891 48.23188141 99.33409109 45.8125 94.75 C45 93 45 93 45 91 C40.05 91.33 35.1 91.66 30 92 C29.67 111.8 29.34 131.6 29 152 C23.59602557 153.35099361 18.42369036 153.18425515 12.875 153.1875 C11.76511719 153.19974609 10.65523437 153.21199219 9.51171875 153.22460938 C7.92423828 153.22750977 7.92423828 153.22750977 6.3046875 153.23046875 C5.33515137 153.23457764 4.36561523 153.23868652 3.36669922 153.24291992 C1 153 1 153 -1 151 C-1.18813821 148.19850486 -1.2517501 145.49663997 -1.22705078 142.69482422 C-1.22734283 141.83621796 -1.22763489 140.97761169 -1.22793579 140.09298706 C-1.22653922 137.24678543 -1.21096273 134.40084356 -1.1953125 131.5546875 C-1.19158353 129.58456566 -1.18873601 127.61444198 -1.18673706 125.64431763 C-1.17909146 120.45256452 -1.15943504 115.26092286 -1.1373291 110.06921387 C-1.1168906 104.7740225 -1.10773962 99.47881317 -1.09765625 94.18359375 C-1.07619001 83.78901346 -1.04204292 73.39451599 -1 63 C-0.33316193 62.99191315 0.33367615 62.98382629 1.02072144 62.97549438 C7.99707248 62.88905515 14.97315218 62.7895368 21.94921875 62.68261719 C24.54845603 62.64446918 27.14774356 62.60959226 29.74707031 62.578125 C33.49562467 62.53216571 37.24383734 62.47422256 40.9921875 62.4140625 C42.14363251 62.40251129 43.29507751 62.39096008 44.48141479 62.37905884 C56.62189123 62.3975821 56.62189123 62.3975821 67.5 57.75 C71.0834802 53.80817178 71.8368913 50.79419569 72.3125 45.5625 C71.94573483 41.38137703 71.06933941 38.65583295 69 35 C64.06417716 31.09247359 60.36696447 29.88408074 54.16748047 29.81054688 C52.96968964 29.79382935 51.7718988 29.77711182 50.53781128 29.7598877 C49.24400543 29.74631226 47.95019958 29.73273682 46.6171875 29.71875 C45.2786484 29.70071033 43.94011679 29.68210725 42.60159302 29.66296387 C37.63698274 29.59318782 32.67225946 29.53363454 27.70751953 29.47393799 C23.50793674 29.42307922 19.30844208 29.36829367 15.10898209 29.30812073 C13.13413621 29.28147865 11.1592132 29.26076976 9.18429565 29.2401123 C7.99280914 29.22339478 6.80132263 29.20667725 5.57373047 29.18945312 C4.51910614 29.17692505 3.46448181 29.16439697 2.37789917 29.15148926 C0 29 0 29 -1 28 C-1.09974389 26.09715013 -1.1308063 24.19061747 -1.1328125 22.28515625 C-1.13410156 21.12435547 -1.13539062 19.96355469 -1.13671875 18.76757812 C-1.13091797 16.93356445 -1.13091797 16.93356445 -1.125 15.0625 C-1.13080078 13.23428711 -1.13080078 13.23428711 -1.13671875 11.36914062 C-1.13542969 10.20705078 -1.13414063 9.04496094 -1.1328125 7.84765625 C-1.13168457 6.77523682 -1.13055664 5.70281738 -1.12939453 4.59790039 C-1 2 -1 2 0 0 Z " fill="#FEFEFE" transform="translate(127,149)"/>
</svg>
