<?xml version="1.0" encoding="UTF-8"?>
<svg version="1.1" xmlns="http://www.w3.org/2000/svg" width="500" height="500">
<path d="M0 0 C1.20970459 0.00523682 2.41940918 0.01047363 3.66577148 0.01586914 C4.97094727 0.0190918 6.27612305 0.02231445 7.62084961 0.02563477 C9.00952213 0.03399138 10.39819401 0.04245634 11.78686523 0.05102539 C13.17944179 0.05603873 14.57202005 0.06060193 15.96459961 0.06469727 C19.38456394 0.07653105 22.80444367 0.09301659 26.22436523 0.11352539 C29.84658013 8.00787413 32.98498323 16.07194755 36.09936523 24.17602539 C36.63987762 25.57808076 37.1804869 26.98009879 37.72119141 28.38208008 C41.27538 37.60645433 44.79069163 46.84357937 48.22436523 56.11352539 C48.86064553 57.80249272 49.49739617 59.4912829 50.13452148 61.17993164 C50.78968663 62.92854818 51.44463735 64.67724508 52.09936523 66.42602539 C52.41043213 67.24619141 52.72149902 68.06635742 53.04199219 68.91137695 C53.46871216 70.05751465 53.46871216 70.05751465 53.90405273 71.22680664 C54.15912598 71.90525635 54.41419922 72.58370605 54.67700195 73.28271484 C55.22436523 75.11352539 55.22436523 75.11352539 55.22436523 78.11352539 C55.88436523 78.11352539 56.54436523 78.11352539 57.22436523 78.11352539 C57.38545776 77.29269218 57.38545776 77.29269218 57.54980469 76.45527649 C58.71452854 70.84473379 60.35058194 65.62144345 62.41186523 60.28149414 C62.71503662 59.4824617 63.01820801 58.68342926 63.33056641 57.86018372 C63.96642543 56.18774969 64.60521257 54.5164262 65.24682617 52.84619141 C66.22761896 50.29255384 67.19939256 47.73562479 68.16967773 45.17797852 C68.79155544 43.54561957 69.41393363 41.91345119 70.03686523 40.28149414 C70.32650146 39.52104294 70.6161377 38.76059174 70.91455078 37.97709656 C72.21772698 34.58961049 73.59872083 31.3648142 75.22436523 28.11352539 C85.12436523 28.11352539 95.02436523 28.11352539 105.22436523 28.11352539 C104.37380283 32.36633742 103.20169848 36.12087148 101.65405273 40.13305664 C101.39115448 40.82414017 101.12825623 41.51522369 100.85739136 42.22724915 C100.28474396 43.73134465 99.71034377 45.23477373 99.13439941 46.73760986 C98.20606763 49.16129675 97.28334696 51.58705465 96.36206055 54.01342773 C94.36246898 59.27773242 92.35617791 64.53947011 90.34936523 69.80102539 C89.33573749 72.45990895 88.3222298 75.11883825 87.30873108 77.777771 C86.63217434 79.55245354 85.95544677 81.32707097 85.27854919 83.10162354 C83.57387373 87.57088983 81.87150191 92.0410084 80.17382812 96.51293945 C76.25277418 106.83667726 72.2873469 117.140804 68.23144531 127.41235352 C67.39208421 129.53863495 66.55520715 131.66588357 65.71850586 133.79321289 C65.17242511 135.17868601 64.62620668 136.56410487 64.07983398 137.94946289 C63.6018335 139.16166504 63.12383301 140.37386719 62.63134766 141.62280273 C61.21213442 145.14387004 59.73266454 148.62991963 58.22436523 152.11352539 C56.90436523 152.11352539 55.58436523 152.11352539 54.22436523 152.11352539 C51.28757032 145.25234082 48.53121937 138.34456428 45.9375 131.34667969 C43.20810939 124.0124327 40.36967637 116.72075064 37.53686523 109.42602539 C33.47533533 98.96207599 29.44946844 88.48562074 25.47436523 77.98852539 C24.79942017 76.2068396 24.79942017 76.2068396 24.11083984 74.38916016 C22.00133729 68.81705708 19.89630472 63.24329054 17.79467773 57.66821289 C17.06295791 55.73329777 16.33119017 53.79840076 15.59936523 51.86352539 C15.26839844 50.98164551 14.93743164 50.09976563 14.59643555 49.19116211 C13.39180819 45.36782752 13.39180819 45.36782752 11.22436523 42.11352539 C4.88974483 58.02306386 4.88974483 58.02306386 -0.96313477 74.11352539 C-2.99603925 79.99517308 -5.19338211 85.78066278 -7.53515625 91.54589844 C-9.52427233 96.45092895 -11.39770873 101.39234629 -13.2421875 106.35327148 C-16.92028198 116.2202977 -20.73414109 126.03590575 -24.5222168 135.86108398 C-26.60956581 141.27745789 -28.69254834 146.69551099 -30.77563477 152.11352539 C-32.09563477 152.11352539 -33.41563477 152.11352539 -34.77563477 152.11352539 C-37.6817161 148.38943598 -38.98822525 143.98401673 -40.46313477 139.55102539 C-42.97227998 132.21610728 -45.74726898 125.02165008 -48.70800781 117.85742188 C-50.83565565 112.65154539 -52.74349717 107.3930417 -54.58813477 102.08227539 C-57.70283714 93.1419994 -61.20390983 84.37924726 -64.77563477 75.61352539 C-68.66316334 66.0727587 -72.4307555 56.52583744 -75.78979492 46.78405762 C-77.40104989 42.11250534 -79.16529254 37.53765726 -81.11157227 32.99633789 C-81.77563477 31.11352539 -81.77563477 31.11352539 -81.77563477 28.11352539 C-71.87563477 28.11352539 -61.97563477 28.11352539 -51.77563477 28.11352539 C-49.79904657 32.72556452 -47.95189607 37.23391881 -46.25219727 41.93774414 C-45.78348248 43.22747048 -45.31473129 44.51718359 -44.84594727 45.80688477 C-44.12562525 47.79605548 -43.40622147 49.78555288 -42.68774414 51.77539062 C-39.5999632 60.31676262 -36.3604373 68.7649403 -32.77563477 77.11352539 C-32.55125732 76.49461426 -32.32687988 75.87570312 -32.09570312 75.23803711 C-25.99088757 58.45473597 -19.5621269 41.81768203 -12.95507812 25.22631836 C-12.33518028 23.66796197 -11.71546508 22.1095329 -11.09594727 20.55102539 C-10.80142166 19.81071075 -10.50689606 19.07039612 -10.20344543 18.30764771 C-8.19517991 13.23641323 -6.2941028 8.13538464 -4.49780273 2.98461914 C-3.37419877 0.07342889 -3.27317484 0.13387513 0 0 Z " fill="#FEFEFE" transform="translate(302.775634765625,206.886474609375)"/>
<path d="M0 0 C8.02416852 -0.06989114 16.04820722 -0.12300781 24.07260609 -0.15543652 C27.7997351 -0.17101037 31.52665398 -0.19209451 35.25366211 -0.22631836 C38.85875668 -0.25921088 42.4636507 -0.27691506 46.0688839 -0.28463173 C47.43583007 -0.29012219 48.80276681 -0.30084166 50.16962624 -0.31719017 C58.63542306 -0.41430534 65.96917587 0.2830425 74 3 C74.88544998 3.27951004 75.77089996 3.55902008 76.68318176 3.84700012 C86.77802575 7.14785634 93.87256868 14.55594247 98.88671875 23.72265625 C104.79987439 35.81869041 104.51229805 51.4825108 100.29296875 64.1171875 C95.98596235 73.91120206 87.59029375 81.54024147 78 86 C77.34 86 76.68 86 76 86 C78.60227298 92.64400778 81.36290061 99.1906447 84.3125 105.6875 C84.70493896 106.55544189 85.09737793 107.42338379 85.50170898 108.31762695 C89.63833805 117.44578282 93.83481238 126.5464007 98.2109375 135.5625 C98.5814624 136.33247314 98.9519873 137.10244629 99.33374023 137.89575195 C100.05324077 139.38965851 100.77902471 140.88056003 101.51196289 142.36791992 C103.20479311 145.89426458 104 148.01753149 104 152 C98.0827613 153.02021357 92.31030116 153.18332035 86.3125 153.1875 C84.90774414 153.20586914 84.90774414 153.20586914 83.47460938 153.22460938 C82.12012695 153.22750977 82.12012695 153.22750977 80.73828125 153.23046875 C79.92399658 153.23457764 79.10971191 153.23868652 78.27075195 153.24291992 C75.70804444 152.96876725 74.15625887 152.40527397 72 151 C70.55776771 148.48762521 69.35680869 146.07528834 68.1875 143.4375 C67.81931152 142.63481689 67.45112305 141.83213379 67.07177734 141.00512695 C65.70176586 138.00908071 64.351915 135.00425556 63 132 C61.73037374 129.20198239 60.45699102 126.40567807 59.18359375 123.609375 C57.1647316 119.17524699 55.14762751 114.74037947 53.14135742 110.30053711 C52.82437393 109.5999115 52.50739044 108.89928589 52.18080139 108.1774292 C51.58521809 106.86060613 50.99053665 105.54337461 50.3969574 104.22564697 C49.09075293 101.33966883 47.74256338 98.49814984 46.29638672 95.67895508 C45 93 45 93 45 91 C40.05 91.33 35.1 91.66 30 92 C29.67 111.8 29.34 131.6 29 152 C23.07825314 152.84596384 17.68249419 153.18316338 11.75 153.1875 C10.8528125 153.19974609 9.955625 153.21199219 9.03125 153.22460938 C8.17015625 153.22654297 7.3090625 153.22847656 6.421875 153.23046875 C5.25543457 153.23663208 5.25543457 153.23663208 4.06542969 153.24291992 C2 153 2 153 -1 151 C-1.28618725 148.15899567 -1.37815744 145.53689419 -1.34057617 142.69482422 C-1.34101425 141.83621796 -1.34145233 140.97761169 -1.34190369 140.09298706 C-1.33980874 137.24665822 -1.31644467 134.40091381 -1.29296875 131.5546875 C-1.2873753 129.58456748 -1.28310402 127.6144433 -1.28010559 125.64431763 C-1.26863705 120.4524997 -1.23915262 115.26093254 -1.20599365 110.06921387 C-1.17533601 104.77404167 -1.16160948 99.47882906 -1.14648438 94.18359375 C-1.11428482 83.78895217 -1.06306426 73.39449692 -1 63 C-0.33316193 62.99191315 0.33367615 62.98382629 1.02072144 62.97549438 C7.99707248 62.88905515 14.97315218 62.7895368 21.94921875 62.68261719 C24.54845603 62.64446918 27.14774356 62.60959226 29.74707031 62.578125 C33.49562467 62.53216571 37.24383734 62.47422256 40.9921875 62.4140625 C42.14363251 62.40251129 43.29507751 62.39096008 44.48141479 62.37905884 C56.62189123 62.3975821 56.62189123 62.3975821 67.5 57.75 C71.0834802 53.80817178 71.8368913 50.79419569 72.3125 45.5625 C71.94573483 41.38137703 71.06933941 38.65583295 69 35 C64.06417716 31.09247359 60.36696447 29.88408074 54.16748047 29.81054688 C52.96968964 29.79382935 51.7718988 29.77711182 50.53781128 29.7598877 C49.24400543 29.74631226 47.95019958 29.73273682 46.6171875 29.71875 C45.2786484 29.70071033 43.94011679 29.68210725 42.60159302 29.66296387 C37.63698274 29.59318782 32.67225946 29.53363454 27.70751953 29.47393799 C23.50793674 29.42307922 19.30844208 29.36829367 15.10898209 29.30812073 C13.13413621 29.28147865 11.1592132 29.26076976 9.18429565 29.2401123 C7.99280914 29.22339478 6.80132263 29.20667725 5.57373047 29.18945312 C4.51910614 29.17692505 3.46448181 29.16439697 2.37789917 29.15148926 C0 29 0 29 -1 28 C-1.09974389 26.09715013 -1.1308063 24.19061747 -1.1328125 22.28515625 C-1.13410156 21.12435547 -1.13539062 19.96355469 -1.13671875 18.76757812 C-1.13091797 16.93356445 -1.13091797 16.93356445 -1.125 15.0625 C-1.13080078 13.23428711 -1.13080078 13.23428711 -1.13671875 11.36914062 C-1.13542969 10.20705078 -1.13414063 9.04496094 -1.1328125 7.84765625 C-1.13168457 6.77523682 -1.13055664 5.70281738 -1.12939453 4.59790039 C-1 2 -1 2 0 0 Z " fill="#FEFEFE" transform="translate(127,149)"/>
<path d="M0 0 C2.475 0.495 2.475 0.495 5 1 C5 3.97 5 6.94 5 10 C5.99 10 6.98 10 8 10 C8 7.03 8 4.06 8 1 C9.32 0.67 10.64 0.34 12 0 C13 1 13 1 13.1875 4.75 C13.15615249 8.23584286 12.57760458 10.84479083 11 14 C4.82758621 15.42440318 4.82758621 15.42440318 1.5625 13.75 C-0.91791868 9.38446313 -0.30461555 4.90769501 0 0 Z " fill="#FEFEFE" transform="translate(321,171)"/>
<path d="M0 0 C1.670625 0.061875 1.670625 0.061875 3.375 0.125 C4.375 3.125 4.375 3.125 3.375 6.125 C4.035 6.785 4.695 7.445 5.375 8.125 C5.04528521 11.42214793 4.7523161 12.7476839 2.375 15.125 C-1.25 15.25 -1.25 15.25 -4.625 15.125 C-4.955 13.475 -5.285 11.825 -5.625 10.125 C-4.965 9.795 -4.305 9.465 -3.625 9.125 C-4.285 8.795 -4.945 8.465 -5.625 8.125 C-5.75 5.25 -5.75 5.25 -5.625 2.125 C-3.625 0.125 -3.625 0.125 0 0 Z " fill="#FEFEFE" transform="translate(397.625,170.875)"/>
<path d="M0 0 C1.670625 0.061875 1.670625 0.061875 3.375 0.125 C3.33375 1.07375 3.2925 2.0225 3.25 3 C3.02526182 6.22744856 3.02526182 6.22744856 5.375 8.125 C5.1875 10.625 5.1875 10.625 4.375 13.125 C0.9397952 15.41513653 -0.610331 15.30342973 -4.625 15.125 C-4.955 13.475 -5.285 11.825 -5.625 10.125 C-4.965 9.795 -4.305 9.465 -3.625 9.125 C-4.285 8.795 -4.945 8.465 -5.625 8.125 C-5.75 5.25 -5.75 5.25 -5.625 2.125 C-3.625 0.125 -3.625 0.125 0 0 Z " fill="#FEFEFE" transform="translate(304.625,170.875)"/>
<path d="M0 0 C2.3515625 0.19921875 2.3515625 0.19921875 5 1 C6.3984375 3.14453125 6.3984375 3.14453125 7.375 5.8125 C7.71273438 6.68519531 8.05046875 7.55789062 8.3984375 8.45703125 C9.02645192 11.11181946 8.90978447 12.4656004 8 15 C7.4225 14.649375 6.845 14.29875 6.25 13.9375 C3.56641628 12.81934012 2.69390896 13.07396879 0 14 C-1.33158758 14.34024021 -2.66472616 14.674527 -4 15 C-3.63495936 9.33557626 -2.9445679 4.99296295 0 0 Z M2 7 C3 9 3 9 3 9 Z " fill="#FFFFFF" transform="translate(350,171)"/>
<path d="M0 0 C2.4375 0.125 2.4375 0.125 5 1 C6.3125 3.5625 6.3125 3.5625 7 6 C7.66 4.02 8.32 2.04 9 0 C10.32 0 11.64 0 13 0 C12.48594831 4.96916636 11.76615118 9.29026351 10 14 C8.35 14.33 6.7 14.66 5 15 C2.02931839 10.6147081 0.54058233 6.01508715 -1 1 C-0.67 0.67 -0.34 0.34 0 0 Z " fill="#FFFFFF" transform="translate(257,171)"/>
<path d="M0 0 C2.475 0.495 2.475 0.495 5 1 C5 3.97 5 6.94 5 10 C6.65 10.33 8.3 10.66 10 11 C10 11.99 10 12.98 10 14 C7.01787087 15.49106457 4.28390342 15.11941467 1 15 C0 14 0 14 -0.09765625 10.83984375 C-0.08025391 8.90818359 -0.08025391 8.90818359 -0.0625 6.9375 C-0.05347656 5.64714844 -0.04445313 4.35679687 -0.03515625 3.02734375 C-0.02355469 2.02832031 -0.01195312 1.02929688 0 0 Z " fill="#FFFFFF" transform="translate(371,171)"/>
<path d="M0 0 C1.98 0.495 1.98 0.495 4 1 C4 5.29 4 9.58 4 14 C2.68 14.33 1.36 14.66 0 15 C-1 14 -1 14 -1.1328125 11.09375 C-1.13023437 9.9078125 -1.12765625 8.721875 -1.125 7.5 C-1.12757813 6.3140625 -1.13015625 5.128125 -1.1328125 3.90625 C-1 1 -1 1 0 0 Z " fill="#FFFFFF" transform="translate(283,171)"/>
</svg>
