<?xml version="1.0" encoding="UTF-8"?>
<svg version="1.1" xmlns="http://www.w3.org/2000/svg" width="512" height="512">
<path d="M0 0 C15.84846753 13.39465651 26.0916335 31.85677657 28.3125 52.625 C32.01370771 106.9198352 1.34602376 161.79585499 -32.125 202.5625 C-39.83254212 211.87689041 -39.83254212 211.87689041 -41.5625 223.5 C-41.15197533 226.05900659 -40.69283644 228.59880132 -40.17553711 231.13842773 C-38.84931035 237.74852012 -38.33469522 244.07699511 -38.375 250.8125 C-38.38063965 251.8142627 -38.3862793 252.81602539 -38.39208984 253.84814453 C-38.82328206 280.48386983 -49.98028957 307.01170565 -66.6875 327.625 C-67.1 328.19863281 -67.5125 328.77226562 -67.9375 329.36328125 C-72.88933522 336.01730983 -81.44550689 342.05707875 -89.6875 343.625 C-98.73883956 344.59091034 -106.19118553 344.08818121 -113.6875 338.625 C-118.74552058 334.21291711 -121.30419085 328.80758432 -123.6875 322.625 C-124.07421875 323.21667969 -124.4609375 323.80835938 -124.859375 324.41796875 C-126.45086193 326.83277441 -128.06558399 329.23055044 -129.6875 331.625 C-130.285625 332.511875 -130.88375 333.39875 -131.5 334.3125 C-137.14398275 340.27899605 -144.08891543 344.2909148 -152.34375 344.890625 C-154.24640625 344.88289062 -154.24640625 344.88289062 -156.1875 344.875 C-157.4559375 344.88015625 -158.724375 344.8853125 -160.03125 344.890625 C-163.59140317 344.63198139 -166.37495385 343.91321239 -169.6875 342.625 C-169.749375 343.615 -169.81125 344.605 -169.875 345.625 C-170.99787268 353.15128175 -175.95076589 358.45152773 -181.63671875 363.15234375 C-188.87233117 368.34820257 -196.99797981 369.30483444 -205.6875 368.625 C-217.68187643 366.48254458 -225.98566706 360.91539876 -234.6875 352.625 C-235.16058594 353.08390625 -235.63367188 353.5428125 -236.12109375 354.015625 C-244.67230143 361.95007891 -253.16698043 364.99204327 -264.78125 364.8359375 C-275.23073958 364.0775068 -282.32288807 359.3089026 -289.4375 351.9375 C-296.00836149 343.96826295 -297.33546606 335.42964077 -297.09765625 325.296875 C-296.58973074 320.7497323 -295.33534883 316.95355296 -293.46484375 312.796875 C-292.38831719 310.49351605 -292.38831719 310.49351605 -293.6875 307.625 C-295.10003697 306.71694052 -296.51365598 305.81050514 -297.93359375 304.9140625 C-303.67047008 300.69765006 -307.31718709 295.28145396 -309.6875 288.625 C-311.42398308 274.68972326 -307.8237042 264.21878944 -299.53515625 252.9609375 C-296.71573519 249.39642631 -293.7623726 245.97091 -290.6875 242.625 C-291.6775 242.295 -292.6675 241.965 -293.6875 241.625 C-295.2578125 239.4453125 -295.2578125 239.4453125 -296.8125 236.75 C-297.33070313 235.86570312 -297.84890625 234.98140625 -298.3828125 234.0703125 C-302.24220606 226.83683835 -301.81763048 216.96041435 -299.78125 209.1484375 C-297.35230143 202.99821516 -294.29817815 198.34290323 -289.6875 193.625 C-290.41195312 193.45484375 -291.13640625 193.2846875 -291.8828125 193.109375 C-301.02731494 190.81715306 -307.23716516 187.43875437 -312.6875 179.625 C-316.90224567 172.4583538 -316.82900761 163.65986392 -315.03125 155.73046875 C-307.03938898 131.65154267 -282.76464419 112.69467001 -260.84936523 101.52929688 C-246.37134466 94.44292386 -230.01078602 89.54085211 -213.6953125 90.71484375 C-209.67646574 90.53501209 -207.23454523 89.13853418 -204.328125 86.41015625 C-203.53921875 85.51167969 -202.7503125 84.61320312 -201.9375 83.6875 C-201.06996094 82.70394531 -200.20242187 81.72039062 -199.30859375 80.70703125 C-196.05180557 76.91004599 -192.91887346 73.01349875 -189.77734375 69.12109375 C-187.47877605 66.37570168 -185.0406285 63.87672397 -182.46044922 61.39916992 C-180.73188181 59.66941236 -179.15019891 57.87799613 -177.56640625 56.015625 C-173.33774858 51.15121745 -168.81684949 46.60758531 -164.25 42.0625 C-163.44240234 41.25103516 -162.63480469 40.43957031 -161.80273438 39.60351562 C-156.92652135 34.73516112 -151.91960965 30.10612303 -146.6875 25.625 C-145.71167969 24.75617188 -144.73585937 23.88734375 -143.73046875 22.9921875 C-103.39264007 -12.21374232 -47.42162776 -37.4415603 0 0 Z " fill="#6A1B2D" transform="translate(399.6875,81.375)"/>
<path d="M0 0 C15.84846753 13.39465651 26.0916335 31.85677657 28.3125 52.625 C32.01370771 106.9198352 1.34602376 161.79585499 -32.125 202.5625 C-39.83254212 211.87689041 -39.83254212 211.87689041 -41.5625 223.5 C-41.15197533 226.05900659 -40.69283644 228.59880132 -40.17553711 231.13842773 C-38.84931035 237.74852012 -38.33469522 244.07699511 -38.375 250.8125 C-38.38063965 251.8142627 -38.3862793 252.81602539 -38.39208984 253.84814453 C-38.82328206 280.48386983 -49.98028957 307.01170565 -66.6875 327.625 C-67.1 328.19863281 -67.5125 328.77226562 -67.9375 329.36328125 C-72.88933522 336.01730983 -81.44550689 342.05707875 -89.6875 343.625 C-98.73883956 344.59091034 -106.19118553 344.08818121 -113.6875 338.625 C-118.74552058 334.21291711 -121.30419085 328.80758432 -123.6875 322.625 C-124.07421875 323.21667969 -124.4609375 323.80835938 -124.859375 324.41796875 C-126.45086193 326.83277441 -128.06558399 329.23055044 -129.6875 331.625 C-130.285625 332.511875 -130.88375 333.39875 -131.5 334.3125 C-137.14398275 340.27899605 -144.08891543 344.2909148 -152.34375 344.890625 C-154.24640625 344.88289062 -154.24640625 344.88289062 -156.1875 344.875 C-157.4559375 344.88015625 -158.724375 344.8853125 -160.03125 344.890625 C-163.59140317 344.63198139 -166.37495385 343.91321239 -169.6875 342.625 C-169.749375 343.615 -169.81125 344.605 -169.875 345.625 C-170.99787268 353.15128175 -175.95076589 358.45152773 -181.63671875 363.15234375 C-188.87233117 368.34820257 -196.99797981 369.30483444 -205.6875 368.625 C-217.68187643 366.48254458 -225.98566706 360.91539876 -234.6875 352.625 C-235.16058594 353.08390625 -235.63367188 353.5428125 -236.12109375 354.015625 C-244.67230143 361.95007891 -253.16698043 364.99204327 -264.78125 364.8359375 C-275.23073958 364.0775068 -282.32288807 359.3089026 -289.4375 351.9375 C-296.00836149 343.96826295 -297.33546606 335.42964077 -297.09765625 325.296875 C-296.58973074 320.7497323 -295.33534883 316.95355296 -293.46484375 312.796875 C-292.38831719 310.49351605 -292.38831719 310.49351605 -293.6875 307.625 C-295.10003697 306.71694052 -296.51365598 305.81050514 -297.93359375 304.9140625 C-303.67047008 300.69765006 -307.31718709 295.28145396 -309.6875 288.625 C-311.42398308 274.68972326 -307.8237042 264.21878944 -299.53515625 252.9609375 C-296.71573519 249.39642631 -293.7623726 245.97091 -290.6875 242.625 C-291.6775 242.295 -292.6675 241.965 -293.6875 241.625 C-295.2578125 239.4453125 -295.2578125 239.4453125 -296.8125 236.75 C-297.33070313 235.86570312 -297.84890625 234.98140625 -298.3828125 234.0703125 C-302.24220606 226.83683835 -301.81763048 216.96041435 -299.78125 209.1484375 C-297.35230143 202.99821516 -294.29817815 198.34290323 -289.6875 193.625 C-290.41195312 193.45484375 -291.13640625 193.2846875 -291.8828125 193.109375 C-301.02731494 190.81715306 -307.23716516 187.43875437 -312.6875 179.625 C-316.90224567 172.4583538 -316.82900761 163.65986392 -315.03125 155.73046875 C-307.03938898 131.65154267 -282.76464419 112.69467001 -260.84936523 101.52929688 C-246.37134466 94.44292386 -230.01078602 89.54085211 -213.6953125 90.71484375 C-209.67646574 90.53501209 -207.23454523 89.13853418 -204.328125 86.41015625 C-203.53921875 85.51167969 -202.7503125 84.61320312 -201.9375 83.6875 C-201.06996094 82.70394531 -200.20242187 81.72039062 -199.30859375 80.70703125 C-196.05180557 76.91004599 -192.91887346 73.01349875 -189.77734375 69.12109375 C-187.47877605 66.37570168 -185.0406285 63.87672397 -182.46044922 61.39916992 C-180.73188181 59.66941236 -179.15019891 57.87799613 -177.56640625 56.015625 C-173.33774858 51.15121745 -168.81684949 46.60758531 -164.25 42.0625 C-163.44240234 41.25103516 -162.63480469 40.43957031 -161.80273438 39.60351562 C-156.92652135 34.73516112 -151.91960965 30.10612303 -146.6875 25.625 C-145.71167969 24.75617188 -144.73585937 23.88734375 -143.73046875 22.9921875 C-103.39264007 -12.21374232 -47.42162776 -37.4415603 0 0 Z M-124.6875 29.625 C-126.09128906 30.73681641 -126.09128906 30.73681641 -127.5234375 31.87109375 C-138.56634839 40.74655652 -148.77102877 50.52168934 -158.77954102 60.53173828 C-160.37954519 62.12953893 -161.98743615 63.71911551 -163.59570312 65.30859375 C-169.32972155 71.01219647 -174.68645797 76.81220911 -179.70605469 83.16381836 C-181.79793242 85.76216969 -183.99782243 88.22746811 -186.25 90.6875 C-194.23645107 98.85953591 -194.23645107 98.85953591 -199.6875 108.625 C-200.6671875 108.46515625 -201.646875 108.3053125 -202.65625 108.140625 C-219.59595518 105.74253421 -236.28086721 108.1667407 -251.6875 115.625 C-252.58855469 116.05554688 -253.48960937 116.48609375 -254.41796875 116.9296875 C-262.22767067 120.91905904 -268.92043191 126.10630961 -275.6875 131.625 C-276.51507813 132.29660156 -277.34265625 132.96820313 -278.1953125 133.66015625 C-287.11255636 141.22583179 -298.8429915 152.67320994 -300 164.9375 C-299.63196535 169.28030882 -298.40235449 171.27135622 -295.6875 174.625 C-292.19740088 176.37004956 -288.4528985 176.13747804 -284.73632812 175.05859375 C-282.62640305 174.2722607 -280.53277322 173.44952235 -278.4375 172.625 C-266.27175418 168.19924258 -254.10282855 168.13406862 -241.6875 171.625 C-240.9622687 176.0436773 -241.01173002 179.43810641 -242.6875 183.625 C-246.85203826 187.27086772 -252.36261427 189.21526707 -257.35107422 191.48339844 C-261.07109217 193.3010373 -264.45940968 195.5455969 -267.875 197.875 C-268.7724292 198.47562256 -268.7724292 198.47562256 -269.68798828 199.08837891 C-278.96902955 205.31414119 -278.96902955 205.31414119 -284.6875 214.625 C-285.56019633 220.2435955 -285.03851847 224.91263028 -281.6875 229.625 C-277.16121263 233.69254203 -272.01778515 236.73776221 -266.6875 239.625 C-266.38671875 241.828125 -266.38671875 241.828125 -266.6875 244.625 C-268.70703125 246.984375 -268.70703125 246.984375 -271.5 249.375 C-272.23790771 250.01961182 -272.23790771 250.01961182 -272.99072266 250.67724609 C-276.42448252 253.65055262 -279.99238887 256.44248404 -283.5625 259.25 C-289.15333089 263.84103996 -293.11995555 267.4251711 -294.1171875 274.8046875 C-294.30411831 279.65389263 -294.12279263 283.53676842 -292.3125 288.0625 C-286.76941076 293.47361092 -279.84439415 296.8244762 -272.6875 299.625 C-272.23090637 306.14051856 -273.31971863 309.87219719 -276.625 315.4375 C-280.59013899 322.38847767 -282.72013339 327.53203601 -281.6875 335.625 C-279.6699604 341.07424246 -276.04301361 344.96603488 -270.9921875 347.77734375 C-265.20076301 349.90741005 -259.05222777 349.56518874 -253.4375 347.0625 C-248.36698087 344.11932698 -244.50414134 339.93564031 -240.90625 335.359375 C-240.3184375 334.62203125 -239.730625 333.8846875 -239.125 333.125 C-238.60808594 332.4340625 -238.09117187 331.743125 -237.55859375 331.03125 C-235.6875 329.625 -235.6875 329.625 -232.84765625 329.421875 C-228.21175554 331.18684091 -226.4045805 334.35598509 -223.6875 338.375 C-218.02059689 346.90653657 -218.02059689 346.90653657 -209.6171875 352.421875 C-203.0285733 353.11541334 -197.38669728 353.46864468 -191.6875 349.625 C-187.26352294 345.80429254 -185.02081406 342.61742524 -184.36865234 336.76245117 C-184.321521 335.23068237 -184.321521 335.23068237 -184.2734375 333.66796875 C-184.23476562 332.55615234 -184.19609375 331.44433594 -184.15625 330.29882812 C-184.1253125 329.14833984 -184.094375 327.99785156 -184.0625 326.8125 C-184.02382812 325.64267578 -183.98515625 324.47285156 -183.9453125 323.26757812 C-183.8512487 320.38687436 -183.76560123 317.50617346 -183.6875 314.625 C-181.35522461 314.01904297 -181.35522461 314.01904297 -178.6875 313.625 C-176.00390625 315.3203125 -176.00390625 315.3203125 -173.25 317.75 C-172.29351562 318.57757813 -171.33703125 319.40515625 -170.3515625 320.2578125 C-169.47242188 321.03898437 -168.59328125 321.82015625 -167.6875 322.625 C-162.45084643 327.07512062 -159.85929433 329.20337051 -152.6875 328.625 C-146.66691775 326.56208169 -142.81043232 323.62631116 -139.79101562 317.93530273 C-136.60597557 311.2048534 -134.77822087 304.16560709 -132.96777344 296.97607422 C-132.43439543 294.86269893 -131.88604604 292.75360634 -131.3359375 290.64453125 C-130.98869513 289.28928977 -130.64231006 287.93382827 -130.296875 286.578125 C-129.8323291 284.75522949 -129.8323291 284.75522949 -129.35839844 282.89550781 C-128.76713251 280.01319399 -128.54501252 277.55083506 -128.6875 274.625 C-127.511875 274.645625 -126.33625 274.66625 -125.125 274.6875 C-121.21336533 274.69447261 -117.54252056 274.26750343 -113.6875 273.625 C-107.01167623 285.84301709 -102.905604 298.64077989 -106.6875 312.625 C-107.0282979 317.99256693 -107.15871168 321.25384455 -103.6875 325.625 C-99.94189586 328.12206943 -97.02186546 328.35647281 -92.6875 327.625 C-77.29449745 321.49161794 -68.48177103 301.50188097 -62.1875 287.25390625 C-53.83076812 267.03670855 -51.89898453 246.46733178 -58.6875 225.625 C-59.2456485 224.40504222 -59.81200056 223.18880246 -60.38671875 221.9765625 C-61.81988775 218.28389281 -62.19618805 217.2293929 -60.6875 213.625 C-58.78453268 210.80476939 -56.65357085 208.19394099 -54.5 205.5625 C-42.86357951 190.96741297 -32.24145913 175.66161107 -22.6875 159.625 C-22.22134277 158.84608398 -21.75518555 158.06716797 -21.27490234 157.26464844 C-1.61204058 124.21030882 18.48464369 85.23259831 10.6171875 45.40234375 C9.73787682 42.30258889 8.69097754 39.53319869 7.3125 36.625 C6.91160156 35.70589844 6.51070313 34.78679687 6.09765625 33.83984375 C-1.55076107 18.07745327 -15.70427973 7.04816329 -31.6875 0.625 C-32.49445313 0.27179688 -33.30140625 -0.08140625 -34.1328125 -0.4453125 C-66.76191725 -12.3195127 -100.44605576 10.26252998 -124.6875 29.625 Z " fill="#FDFDFD" transform="translate(399.6875,81.375)"/>
<path d="M0 0 C0.45826172 1.05574219 0.45826172 1.05574219 0.92578125 2.1328125 C10.03936852 21.79762334 26.86743033 38.12019585 44 51 C44.5170752 51.39348633 45.03415039 51.78697266 45.56689453 52.19238281 C60.09139706 63.18320366 77.52624786 74.92905709 96 77 C94.08803806 83.13342247 91.83039615 88.95380243 89.0625 94.75 C88.67553955 95.56146484 88.2885791 96.37292969 87.88989258 97.20898438 C74.06642078 125.67690899 56.20570071 151.83489267 36.109375 176.19921875 C32.57115265 180.49610488 29.15352156 184.88527345 25.77661133 189.30981445 C22.76235486 193.20493328 19.64201599 196.69401805 16 200 C13.00415139 200.17975092 11.7422908 199.95721471 9 199 C7.78957031 198.59587891 7.78957031 198.59587891 6.5546875 198.18359375 C-7.62884106 192.83020066 -21.10881873 184.32589273 -33 175 C-31.28372314 169.29337944 -28.58731472 164.47681892 -25.65625 159.31640625 C-21.86736243 151.72969505 -21.12794204 144.36529677 -22 136 C-24.08512162 131.52084985 -26.37211828 128.81091024 -31 127 C-37.97355552 125.74930798 -43.11856846 127.37624341 -49.12109375 130.9453125 C-53.54986966 134.1061485 -57.465753 137.73371157 -61.37109375 141.51171875 C-63.50442385 143.53093313 -65.60677848 145.30833751 -68 147 C-79.50683436 136.8193079 -90.89068363 126.18370894 -99 113 C-99.61488281 112.08927734 -99.61488281 112.08927734 -100.2421875 111.16015625 C-101.43019689 107.77371712 -100.87104929 105.45097918 -100 102 C-98.4854192 99.64430657 -97.04645353 97.67171783 -95.25 95.5625 C-94.76337891 94.96832275 -94.27675781 94.37414551 -93.77539062 93.76196289 C-92.73283642 92.49064798 -91.68447782 91.22407453 -90.63085938 89.96191406 C-88.98938474 87.9872299 -87.37422248 85.99371741 -85.765625 83.9921875 C-82.53473335 79.97465661 -79.27376831 75.98263895 -76 72 C-75.53625977 71.4342627 -75.07251953 70.86852539 -74.59472656 70.28564453 C-68.46687475 62.83508987 -62.03671262 55.72164961 -55.38916016 48.73046875 C-52.32573238 45.50598182 -49.33088747 42.25074355 -46.4296875 38.87890625 C-43.43310227 35.42855959 -40.27326478 32.30013679 -36.875 29.25 C-35.73539611 28.21515308 -34.59608139 27.17998764 -33.45703125 26.14453125 C-32.88291504 25.62455566 -32.30879883 25.10458008 -31.71728516 24.56884766 C-30.04939969 23.04512971 -28.40250131 21.50203977 -26.76171875 19.94921875 C-21.14653027 14.64902865 -15.4135946 9.56596557 -9.375 4.75 C-8.78275635 4.27167725 -8.1905127 3.79335449 -7.58032227 3.30053711 C-3.36266318 0 -3.36266318 0 0 0 Z " fill="#FE2D5F" transform="translate(294,112)"/>
<path d="M0 0 C2.80654613 1.28518942 4.06908171 3.09489028 5.93359375 5.5390625 C6.90619141 6.79589844 6.90619141 6.79589844 7.8984375 8.078125 C10.30376714 11.33002317 12.65474639 14.61581666 14.99609375 17.9140625 C12.56073053 19.39684822 10.12296438 20.87539607 7.68359375 22.3515625 C6.6481543 22.98288086 6.6481543 22.98288086 5.59179688 23.62695312 C4.92470703 24.02978516 4.25761719 24.43261719 3.5703125 24.84765625 C2.95760498 25.21947021 2.34489746 25.59128418 1.71362305 25.97436523 C-0.00390625 26.9140625 -0.00390625 26.9140625 -3.00390625 27.9140625 C-4.20145442 31.50670702 -4.33485583 34.14123724 -4.00390625 37.9140625 C-1.56936088 41.16012299 1.47552401 42.95819042 4.99609375 44.9140625 C4.70292365 48.2855187 4.29518817 49.62622432 1.81640625 52.01171875 C0.92695313 52.66011719 0.0375 53.30851562 -0.87890625 53.9765625 C-6.85864322 58.27867791 -6.85864322 58.27867791 -9.50390625 64.8515625 C-8.8240769 69.01551727 -7.2573759 70.29714126 -4.00390625 72.9140625 C-0.83745151 74.70727074 -0.83745151 74.70727074 1.99609375 75.9140625 C1.53827645 81.31630669 0.81148042 84.26255409 -2.00390625 88.9140625 C-2.40042489 92.79994518 -2.30966557 95.68599946 -0.00390625 98.9140625 C2.22457205 100.50583271 4.06034903 100.92720563 6.74609375 101.4765625 C12.48720299 100.48290898 16.00008138 95.91007487 19.99609375 91.9140625 C23.30896571 92.04376711 24.63209697 92.53474722 26.9453125 94.9453125 C27.51894531 95.76 28.09257812 96.5746875 28.68359375 97.4140625 C30.87344981 100.70394072 30.87344981 100.70394072 33.99609375 102.9140625 C39.2765749 103.36409883 39.2765749 103.36409883 44.20703125 101.87890625 C46.84499711 98.9817516 46.66933972 95.96308841 46.74609375 92.2265625 C46.79056641 91.1737207 46.79056641 91.1737207 46.8359375 90.09960938 C46.90646408 88.37170826 46.95356443 86.6428793 46.99609375 84.9140625 C49.25 84.19921875 49.25 84.19921875 51.99609375 83.9140625 C54.0234375 85.34765625 54.0234375 85.34765625 55.93359375 87.3515625 C59.09430508 90.34414476 59.09430508 90.34414476 63.24609375 91.6015625 C66.80219352 90.71253756 67.73825702 89.82396602 69.99609375 86.9140625 C71.11641309 83.74500077 71.83550053 80.50604591 72.55859375 77.2265625 C72.9438906 75.49081926 73.34046512 73.75752855 73.75 72.02734375 C74.00245483 70.87939331 74.00245483 70.87939331 74.26000977 69.70825195 C74.50291748 69.11616943 74.7458252 68.52408691 74.99609375 67.9140625 C77.99609375 66.9140625 77.99609375 66.9140625 79.7578125 67.51904297 C80.39332031 67.85307129 81.02882813 68.18709961 81.68359375 68.53125 C82.38226563 68.89089844 83.0809375 69.25054687 83.80078125 69.62109375 C84.52523437 70.00652344 85.2496875 70.39195312 85.99609375 70.7890625 C87.43275507 71.5380692 88.870225 72.28552745 90.30859375 73.03125 C90.94410156 73.36753418 91.57960937 73.70381836 92.234375 74.05029297 C94.15908841 75.04267452 94.15908841 75.04267452 96.99609375 75.9140625 C96.3986174 82.97448428 94.96998897 89.51966917 93.12109375 96.3515625 C92.86457031 97.32416016 92.60804688 98.29675781 92.34375 99.29882812 C91.08444094 104.0354755 89.77930648 108.75926778 88.421875 113.46875 C88.19411377 114.2613623 87.96635254 115.05397461 87.73168945 115.87060547 C86.71586648 118.69252325 85.52846664 120.30255248 82.99609375 121.9140625 C78.96564637 121.58038712 76.60119909 119.15176468 73.62109375 116.6015625 C64.5616262 108.79052599 64.5616262 108.79052599 53.05859375 106.64453125 C49.4757835 107.11273941 47.6112249 108.48138236 44.99609375 110.9140625 C43.6402368 113.49866481 42.75931186 116.10278427 41.99609375 118.9140625 C41.82352051 119.51468506 41.65094727 120.11530762 41.47314453 120.73413086 C40.94722366 123.13737928 40.85310705 125.33384947 40.8203125 127.79296875 C40.79646484 128.71400391 40.77261719 129.63503906 40.74804688 130.58398438 C40.70499614 132.51604915 40.67379028 134.44841335 40.65429688 136.38085938 C40.62658203 137.30060547 40.59886719 138.22035156 40.5703125 139.16796875 C40.55572998 140.00658447 40.54114746 140.8452002 40.52612305 141.70922852 C39.99609375 143.9140625 39.99609375 143.9140625 38.11254883 145.67944336 C35.39504913 147.26467764 34.09486951 147.51870167 30.99609375 146.9140625 C27.31509236 143.58305797 24.44028001 139.9412319 21.55859375 135.9140625 C18.32793941 131.54570265 15.44653747 128.01902324 10.99609375 124.9140625 C10.37734375 124.4809375 9.75859375 124.0478125 9.12109375 123.6015625 C4.37336939 122.06553403 0.45597646 122.19965181 -3.94140625 124.3515625 C-8.23644007 127.94536631 -12.11543233 131.8890248 -16.00390625 135.9140625 C-18.56173932 138.54136758 -20.92918612 140.86424908 -24.00390625 142.9140625 C-27.0490999 142.7237379 -29.2500912 142.36635153 -31.87890625 140.7890625 C-33.69049582 137.76974655 -33.28629562 135.38989221 -33.00390625 131.9140625 C-31.94627597 129.04055378 -30.53877252 126.40702417 -29.06640625 123.7265625 C-28.3246331 122.3391008 -27.58623083 120.94983054 -26.8515625 119.55859375 C-26.52164307 118.95378174 -26.19172363 118.34896973 -25.85180664 117.72583008 C-24.29279652 114.39458501 -23.83081395 111.19217811 -23.75390625 107.5390625 C-23.728125 106.80945313 -23.70234375 106.07984375 -23.67578125 105.328125 C-24.14346892 101.88728003 -25.06670253 99.81986807 -27.00390625 96.9140625 C-29.51850416 95.14487875 -32.20073204 93.91102612 -35.00390625 92.6640625 C-36.44206708 91.99360318 -37.87959229 91.32177836 -39.31640625 90.6484375 C-39.95191406 90.36194336 -40.58742188 90.07544922 -41.2421875 89.78027344 C-43.00390625 88.9140625 -43.00390625 88.9140625 -46.00390625 86.9140625 C-46.72564294 83.88276839 -46.59520685 81.92019026 -44.99609375 79.19921875 C-40.42580619 73.54019777 -34.5607646 69.18530309 -28.77929688 64.83374023 C-23.61406891 60.83019238 -18.72615116 56.19748391 -17.59521484 49.49023438 C-17.21791906 44.09071243 -18.57306796 41.19417388 -22.00390625 36.9140625 C-25.30976785 34.75455584 -28.70698452 32.96840081 -32.203125 31.13671875 C-35.00390625 28.9140625 -35.00390625 28.9140625 -36.1640625 25.42578125 C-36.00390625 21.9140625 -36.00390625 21.9140625 -34.36328125 19.6484375 C-8.07120738 -0.34613365 -8.07120738 -0.34613365 0 0 Z " fill="#FD790D" transform="translate(163.00390625,276.0859375)"/>
<path d="M0 0 C13.0918479 9.34363391 20.47558104 21.93925062 23.5390625 37.53515625 C24.79157853 51.56333574 23.84971583 71.29498996 15.6640625 83.22265625 C12.53806995 85.23718478 10.83047108 85.47420024 7.19921875 84.734375 C-25.85850274 74.88856444 -60.5178228 45.85196566 -77.40625 16.03515625 C-78.39627944 13.36728745 -78.69114893 11.86070149 -78.1484375 9.03515625 C-57.98703304 -11.31235348 -23.75235678 -14.75905019 0 0 Z " fill="#F9C034" transform="translate(377.1484375,98.96484375)"/>
<path d="M0 0 C8.49808369 5.49345015 13.70553845 12.99161535 16.875 22.5 C17.67360283 33.30077599 17.01724171 42.40644549 10.25 51.25 C3.36359183 58.60593599 -5.49908961 62.31111856 -15.4375 62.875 C-24.28664468 62.60084405 -31.77100201 58.97949179 -38.11328125 52.921875 C-45.94417782 43.49438787 -48.07432241 33.4284424 -47.125 21.5 C-45.14246487 12.47125722 -39.91950249 6.8843547 -32.53515625 1.671875 C-22.66447647 -4.12325661 -10.38086861 -5.19757383 0 0 Z " fill="#FCEC88" transform="translate(314.125,170.5)"/>
<path d="M0 0 C2.70018347 1.02059889 4.17985148 2.70615363 6.15869141 4.78393555 C6.86509766 5.51741211 7.57150391 6.25088867 8.29931641 7.0065918 C8.83041016 7.57249023 9.36150391 8.13838867 9.90869141 8.72143555 C9.47556641 9.79780273 9.04244141 10.87416992 8.59619141 11.9831543 C3.03796313 26.19090322 3.03796313 26.19090322 4.78369141 40.99487305 C5.86150517 42.95606985 5.86150517 42.95606985 8.40869141 44.03393555 C18.96692783 46.10787484 26.53471625 41.99288418 35.15869141 36.21362305 C36.76437085 35.08058312 38.34072763 33.90611929 39.90869141 32.72143555 C43.86869141 35.36143555 47.82869141 38.00143555 51.90869141 40.72143555 C50.76357074 48.2968492 49.32183209 55.44983828 46.90869141 62.72143555 C44.63916016 63.40112305 44.63916016 63.40112305 41.90869141 63.72143555 C39.95947266 62.54174805 39.95947266 62.54174805 38.22119141 60.84643555 C35.38737356 58.1445693 33.98812795 56.83626922 29.97119141 56.40893555 C26.90170739 56.40662885 26.90170739 56.40662885 25.25244141 58.2956543 C23.45600053 61.53864786 23.46555284 64.15778223 23.34619141 67.84643555 C23.1175181 74.51260885 23.1175181 74.51260885 20.90869141 76.72143555 C17.41815466 76.62912383 16.18136878 76.00443044 13.74072266 73.47143555 C13.07427734 72.56393555 12.40783203 71.65643555 11.72119141 70.72143555 C9.28386207 67.16962777 9.28386207 67.16962777 5.90869141 64.72143555 C2.02884888 64.46840234 -0.86495064 64.41689415 -4.09130859 66.72143555 C-4.77501309 68.04611301 -5.44095045 69.38007187 -6.09130859 70.72143555 C-8.39627111 72.9469166 -9.56281418 73.67227328 -12.77880859 73.97143555 C-15.09130859 73.72143555 -15.09130859 73.72143555 -16.09130859 72.72143555 C-16.58198976 68.69785001 -15.9822873 66.2027073 -14.09130859 62.72143555 C-12.21554739 59.21108244 -11.35604784 56.76536968 -12.09130859 52.72143555 C-14.22722412 49.84616464 -16.00200145 48.76171132 -19.27880859 47.28393555 C-22.09130859 45.72143555 -22.09130859 45.72143555 -23.16552734 43.4909668 C-23.09130859 40.72143555 -23.09130859 40.72143555 -20.38037109 37.85424805 C-18.56266465 36.32080847 -16.70870669 34.84037629 -14.84912109 33.3581543 C-11.54871194 30.57162464 -10.24393885 29.28658002 -9.07958984 24.9753418 C-8.77770436 21.71470561 -8.77770436 21.71470561 -10.65380859 19.53393555 C-13.40439123 17.48863051 -16.19945327 15.56170711 -19.09130859 13.72143555 C-18.18332896 10.0237214 -16.84077361 8.28673216 -13.75537109 6.22924805 C-12.41776132 5.42033779 -11.07099659 4.62640742 -9.71630859 3.84643555 C-8.70697266 3.22381836 -8.70697266 3.22381836 -7.67724609 2.58862305 C-2.68763767 -0.3579961 -2.68763767 -0.3579961 0 0 Z " fill="#FCEC88" transform="translate(182.09130859375,298.278564453125)"/>
<path d="M0 0 C3.83047457 2.1336861 7.57025043 4.33739299 11.2421875 6.734375 C23.01332949 14.41363175 34.88704493 20.88645382 48 26 C46.69605442 28.81367609 45.26017623 31.0750498 43.2421875 33.42578125 C42.70271484 34.05460205 42.16324219 34.68342285 41.60742188 35.33129883 C41.03572266 35.98509521 40.46402344 36.6388916 39.875 37.3125 C39.29041016 37.98240967 38.70582031 38.65231934 38.10351562 39.3425293 C25.91982118 53.13669274 25.91982118 53.13669274 17 54.4375 C2.70160223 53.88520137 -15.6072605 42.20838172 -26 33 C-24.62322312 29.8628666 -23.07494493 27.93373318 -20.5625 25.625 C-16.80042814 21.96590456 -13.53577071 18.06569234 -10.3125 13.9375 C-9.86140869 13.36016113 -9.41031738 12.78282227 -8.94555664 12.18798828 C-5.85967743 8.1967595 -2.9123858 4.11932046 0 0 Z " fill="#F8BF34" transform="translate(257,291)"/>
<path d="M0 0 C3.78720957 1.26240319 4.05209944 2.40854377 6 5.8125 C9.55019188 11.6136646 13.68640324 16.27669567 18.3515625 21.17578125 C20.18522233 23.13114416 21.88589259 25.05451716 23.56640625 27.12890625 C26.25941931 30.30605648 29.16902262 32.72459083 32.42578125 35.2890625 C34 37 34 37 34 41 C32.96533203 42.79248047 32.96533203 42.79248047 31.5078125 44.6171875 C30.9718042 45.30047119 30.4357959 45.98375488 29.88354492 46.68774414 C29.3032251 47.40953857 28.72290527 48.13133301 28.125 48.875 C26.93432104 50.39045432 25.74554597 51.90740626 24.55859375 53.42578125 C23.96159668 54.18713379 23.36459961 54.94848633 22.74951172 55.73291016 C20.14039186 59.11391588 17.65344715 62.57628658 15.1875 66.0625 C14.76162598 66.66368652 14.33575195 67.26487305 13.89697266 67.88427734 C12.92882805 69.25443093 11.96398645 70.62691772 11 72 C2.95640425 70.89813757 -3.52844498 60.62821549 -8.3125 54.5 C-19.15546938 40.17657131 -19.15546938 40.17657131 -18.52734375 31.3828125 C-15.93207516 19.65604333 -6.95525438 9.46940505 0 0 Z " fill="#F8BF34" transform="translate(187,224)"/>
<path d="M0 0 C0.99 0.495 0.99 0.495 2 1 C-4.92399385 11.66172504 -12.24448155 21.92783147 -20 32 C-20.45487793 32.59135742 -20.90975586 33.18271484 -21.37841797 33.79199219 C-26.94320028 41.00160785 -32.66285915 48.08270014 -38.4375 55.125 C-39.02901855 55.8480835 -39.62053711 56.57116699 -40.22998047 57.31616211 C-46.36571237 64.75940811 -46.36571237 64.75940811 -49 67 C-65.56078066 67.34501626 -85.58040428 51.74031215 -98 42 C-96.6210965 37.515458 -95.12079497 34.53690097 -92 31 C-91.113125 31.474375 -90.22625 31.94875 -89.3125 32.4375 C-77.61449774 37.95542559 -60.32388757 36.54895919 -48.375 32.4375 C-29.79510298 25.57354993 -13.84483452 14.02064194 0 0 Z " fill="#E90F4D" transform="translate(359,245)"/>
<path d="M0 0 C7.31423078 18.77536918 4.74719027 38.59179339 -3.04785156 56.87353516 C-14.74928763 83.00674238 -14.74928763 83.00674238 -24 87 C-25.60609447 85.39390553 -25.12809048 83.65450152 -25.140625 81.43359375 C-25.40514453 65.46795058 -27.07805958 51.6676534 -36 38 C-35.59910156 37.62230469 -35.19820313 37.24460937 -34.78515625 36.85546875 C-29.37270926 31.61484547 -24.70798426 25.87113332 -20 20 C-15.5989819 14.55683281 -11.17718772 9.13032075 -6.625 3.8125 C-5.99851562 3.07644531 -5.37203125 2.34039062 -4.7265625 1.58203125 C-3 0 -3 0 0 0 Z " fill="#5BFCCA" transform="translate(330,309)"/>
<path d="M0 0 C1 1 1 1 1.375 4.8125 C1.04526961 27.96690072 -24.0349745 52.40245103 -39.62670898 67.93334961 C-45.47318543 73.58728608 -52.32994875 79.07807572 -60 82 C-62.375 81.6875 -62.375 81.6875 -64 81 C-63.50421828 75.06384026 -62.28090451 70.46962398 -59.6875 65.125 C-59.33921143 64.39885498 -58.99092285 63.67270996 -58.63208008 62.92456055 C-49.68442417 44.90382332 -36.72052034 28.61419407 -23 14 C-22.43023437 13.36578125 -21.86046875 12.7315625 -21.2734375 12.078125 C-15.93530727 6.36050684 -8.28771255 -0.94509003 0 0 Z " fill="#5BFBCA" transform="translate(260,250)"/>
<path d="M0 0 C0.495 1.485 0.495 1.485 1 3 C-0.29446449 5.13060185 -1.61717713 7.02739318 -3.125 9 C-4.05017695 10.25112778 -4.97324051 11.50382027 -5.89453125 12.7578125 C-6.3942041 13.43489258 -6.89387695 14.11197266 -7.40869141 14.80957031 C-10.29016339 18.77590457 -13.04821763 22.82653595 -15.8125 26.875 C-16.35084473 27.65875 -16.88918945 28.4425 -17.44384766 29.25 C-20.75465838 34.0925865 -23.93389141 38.99888557 -27 44 C-27.5978833 43.85997559 -28.1957666 43.71995117 -28.81176758 43.57568359 C-35.1572277 42.18525147 -41.19802666 41.61576642 -47.6875 41.625 C-48.63923096 41.62371094 -49.59096191 41.62242187 -50.5715332 41.62109375 C-57.87933828 41.72947613 -64.26033361 42.90208685 -71.19921875 45.125 C-74 46 -74 46 -77 46 C-75.81942083 35.4509539 -63.52744021 25.78478669 -55.64111328 19.36035156 C-39.6251213 6.69432756 -20.78661569 -1.67934956 0 0 Z " fill="#5BFBCA" transform="translate(189,199)"/>
<path d="M0 0 C-0.165 0.61875 -0.33 1.2375 -0.5 1.875 C-2.49903815 14.36898843 1.40718386 23.91888935 8.57421875 34.16015625 C10.22171644 36.28610533 12.06317516 38.13766843 14 40 C14 40.66 14 41.32 14 42 C14.57363281 42.25652344 15.14726562 42.51304687 15.73828125 42.77734375 C18.22218042 44.1201079 20.06442786 45.70246334 22.1875 47.5625 C34.61250985 57.64976726 49.48116979 64.85517327 65.66015625 64.3984375 C71.85032211 63.65996157 75.91806773 61.62152595 79.80859375 56.72265625 C83.0530343 51.67315525 84.91078359 46.8817686 86 41 C86.33 41 86.66 41 87 41 C87.64012803 54.01593669 86.35299675 72.19991902 78.8125 83.1875 C75.68650745 85.20202853 73.97890858 85.43904399 70.34765625 84.69921875 C37.28993476 74.85340819 2.6306147 45.81680941 -14.2578125 16 C-15.18726509 13.49536986 -15.30508723 11.65125101 -15 9 C-11.37357211 5.37357211 -5.33738721 0 0 0 Z " fill="#FCA022" transform="translate(314,99)"/>
<path d="M0 0 C0.495 0.99 0.495 0.99 1 2 C0.328125 3.92578125 0.328125 3.92578125 -0.75 6.3125 C-7.54544311 22.80560672 -8.22841773 40.27259132 -2 57 C-0.13936323 61.29874579 1.98107018 65.44864587 4.1953125 69.57421875 C5.66011248 72.35480226 6.90902566 75.05886815 8 78 C4.535 81.465 4.535 81.465 1 85 C-11.52361825 76.25709669 -27.6898311 61.68377138 -33 47 C-32.90668035 41.20751582 -30.89491088 37.8423227 -27.25 33.5625 C-26.5233313 32.67449707 -26.5233313 32.67449707 -25.78198242 31.76855469 C-24.74176353 30.4993256 -23.69558528 29.23496137 -22.64404297 27.97509766 C-20.39690615 25.27546344 -18.19112753 22.54315159 -15.98217773 19.81225586 C-14.3389206 17.78263267 -12.689824 15.75789713 -11.0390625 13.734375 C-7.32818284 9.181063 -3.65728947 4.59647256 0 0 Z " fill="#E90F4C" transform="translate(226,174)"/>
<path d="M0 0 C11.81490539 2.87389591 23.03859756 9.91247249 29.88671875 20.09375 C32.71386213 24.93461306 34.76874046 29.23444656 34 35 C32.828125 37.1484375 32.828125 37.1484375 31 39 C19.27023111 41.23675773 8.66800126 36.092557 -1 30 C-7.25038508 25.40919992 -13.49987512 19.50037465 -16 12 C-16.203125 9.84375 -16.203125 9.84375 -16.25 7.5 C-16.27578125 6.7265625 -16.3015625 5.953125 -16.328125 5.15625 C-16 3 -16 3 -14.8515625 1.25 C-10.60642483 -1.61591573 -4.85771657 -0.54208538 0 0 Z " fill="#FAE034" transform="translate(356,100)"/>
<path d="M0 0 C8.58989235 6.31915042 15.34122364 15.70411791 17.2734375 26.33984375 C18.51087296 36.99013093 16.52178519 46.41961779 10.21875 55.203125 C2.63180466 64.06331203 -5.92228381 69.48969515 -17.6796875 70.625 C-29.20492927 70.96484687 -37.96606134 67.8878188 -46.7265625 60.33984375 C-55.17695859 51.5993053 -58.09556026 40.29090443 -58.18188477 28.4597168 C-57.99632246 19.20283491 -54.64711563 12.17549057 -48.3515625 5.40234375 C-34.56113718 -7.02718433 -16.29131432 -9.91949654 0 0 Z M-47.1015625 12.15625 C-52.80350676 19.8182376 -53.83088527 27.98690604 -52.7265625 37.33984375 C-50.40132031 47.34622304 -45.28843414 55.2048259 -36.859375 61.0859375 C-28.83000906 65.80649879 -20.73463847 66.5277152 -11.7890625 64.27734375 C-2.33123567 61.11492887 4.79898488 55.27363259 9.2734375 46.33984375 C12.43950722 38.45742189 12.98067357 28.42166929 9.7109375 20.46484375 C8.60900125 18.36401885 8.60900125 18.36401885 7.2734375 16.33984375 C6.78746094 15.57027344 6.30148437 14.80070312 5.80078125 14.0078125 C1.14684897 7.37348351 -4.58559891 3.91032554 -11.7265625 0.33984375 C-25.84612959 -0.90785849 -37.1191745 1.15482656 -47.1015625 12.15625 Z " fill="#6E1B2D" transform="translate(319.7265625,167.66015625)"/>
<path d="M0 0 C8.82925694 2.49030324 17.25633893 6.84912727 22 15 C23.37165767 19.98221463 22.27372515 24.03062316 20 28.5625 C15.01033204 36.59056912 7.98065816 41.98009694 0.3203125 47.3359375 C-2.04656925 48.93822508 -2.04656925 48.93822508 -4 51 C-4.15833725 53.41741003 -4.15833725 53.41741003 -3 56 C-0.9301986 57.93123729 1.07140798 59.61143015 3.3125 61.3125 C9.12912818 66.00591722 12.93580118 69.62042615 14.42578125 77.15234375 C15.17287684 85.95635259 10.87069004 95.25861992 7 103 C6.95977609 105.3329866 6.95679753 107.66706666 7 110 C11.07247865 108.66603386 13.18960469 107.07738175 15.9375 103.8125 C16.62585938 103.01070313 17.31421875 102.20890625 18.0234375 101.3828125 C19.22881598 99.92968825 20.42424661 98.46813962 21.6015625 96.9921875 C25.49908659 92.17759892 29.14063242 88.59516479 35.45703125 87.62109375 C41.15693693 87.35618059 44.66188547 88.04749565 49 92 C52.29086163 95.78566899 55.19437864 99.8142505 58.01171875 103.9609375 C58.68847656 104.94320312 59.36523438 105.92546875 60.0625 106.9375 C60.67222656 107.85402344 61.28195313 108.77054687 61.91015625 109.71484375 C64.40872949 112.4469285 66.45007 113.1188117 70 114 C70.01458252 113.41621582 70.02916504 112.83243164 70.04418945 112.23095703 C70.11969085 109.52838041 70.21600338 106.82690536 70.3125 104.125 C70.33505859 103.2071875 70.35761719 102.289375 70.38085938 101.34375 C70.74469044 91.9502934 72.19819879 83.80180121 79 77 C83.49363966 74.00424023 87.73248614 74.42273821 93 75 C98.93829273 76.78351454 102.99034203 80.38889333 107 85 C107 85.66 107 86.32 107 87 C103.54516288 85.47987167 100.68504536 83.37385365 97.68359375 81.12109375 C93.80066748 78.53547927 89.50223598 78.41163962 85 79 C80.75875603 80.92056331 78.83944882 82.74305497 77.1875 87 C76.76088313 88.32380507 76.36440362 89.65773631 76 91 C75.82742676 91.60062256 75.65485352 92.20124512 75.47705078 92.82006836 C74.95112991 95.22331678 74.8570133 97.41978697 74.82421875 99.87890625 C74.80037109 100.79994141 74.77652344 101.72097656 74.75195312 102.66992188 C74.70890239 104.60198665 74.67769653 106.53435085 74.65820312 108.46679688 C74.63048828 109.38654297 74.60277344 110.30628906 74.57421875 111.25390625 C74.55963623 112.09252197 74.54505371 112.9311377 74.5300293 113.79516602 C74 116 74 116 72.11645508 117.76538086 C69.39895538 119.35061514 68.09877576 119.60463917 65 119 C61.31899861 115.66899547 58.44418626 112.0271694 55.5625 108 C52.33184566 103.63164015 49.45044372 100.10496074 45 97 C44.38125 96.566875 43.7625 96.13375 43.125 95.6875 C38.37727564 94.15147153 34.45988271 94.28558931 30.0625 96.4375 C25.76746618 100.03130381 21.88847392 103.9749623 18 108 C15.44216693 110.62730508 13.07472013 112.95018658 10 115 C6.95480635 114.8096754 4.75381505 114.45228903 2.125 112.875 C0.31341043 109.85568405 0.71761063 107.47582971 1 104 C2.05763028 101.12649128 3.46513373 98.49296167 4.9375 95.8125 C5.67927315 94.4250383 6.41767542 93.03576804 7.15234375 91.64453125 C7.48226318 91.03971924 7.81218262 90.43490723 8.15209961 89.81176758 C9.71110973 86.48052251 10.1730923 83.27811561 10.25 79.625 C10.27578125 78.89539063 10.3015625 78.16578125 10.328125 77.4140625 C9.86043733 73.97321753 8.93720372 71.90580557 7 69 C4.48540209 67.23081625 1.80317421 65.99696362 -1 64.75 C-2.43816083 64.07954068 -3.87568604 63.40771586 -5.3125 62.734375 C-5.94800781 62.44788086 -6.58351563 62.16138672 -7.23828125 61.86621094 C-9 61 -9 61 -12 59 C-12.72173669 55.96870589 -12.5913006 54.00612776 -10.9921875 51.28515625 C-6.42189994 45.62613527 -0.55685835 41.27124059 5.22460938 36.91967773 C10.38983734 32.91612988 15.27775509 28.28342141 16.40869141 21.57617188 C16.78691071 16.16343337 15.39300557 13.31581306 12 9 C9.0164859 6.6480413 9.0164859 6.6480413 5.75 4.6875 C3.82175366 3.47657975 1.90140057 2.25265226 0 1 C0 0.67 0 0.34 0 0 Z " fill="#FCB154" transform="translate(129,304)"/>
<path d="M0 0 C0.30550781 0.70382813 0.61101562 1.40765625 0.92578125 2.1328125 C10.03936852 21.79762334 26.86743033 38.12019585 44 51 C44.5170752 51.39348633 45.03415039 51.78697266 45.56689453 52.19238281 C58.10697798 61.68157601 71.2409045 69.30771252 85.98828125 74.80859375 C89 76 89 76 92 78 C71.83597519 80.01640248 49.44024585 62.38341729 34.59765625 50.2421875 C31.85476743 47.96240962 29.15345621 45.63828005 26.47119141 43.28759766 C25.11774422 42.10305061 23.75275189 40.9317292 22.38671875 39.76171875 C16.91677607 34.98969539 11.98247815 29.87603983 7.19702148 24.42822266 C3.88415725 20.71695818 0.8571331 17.52320929 -4.17578125 16.6015625 C-14.33076124 16.71295168 -20.38799266 20.54683557 -28 27 C-28.53463867 27.45117188 -29.06927734 27.90234375 -29.62011719 28.3671875 C-36.84139756 34.47036018 -43.97022806 40.67692471 -51 47 C-51.66 46.67 -52.32 46.34 -53 46 C-46.68262405 38.97707519 -40.35310336 32.19814579 -33.2265625 25.9765625 C-31.24591204 24.21830086 -29.39893387 22.4060617 -27.5625 20.5 C-23.05741128 15.920884 -18.00511142 12.01230546 -13 8 C-12.06800781 7.22398438 -11.13601563 6.44796875 -10.17578125 5.6484375 C-9.29277344 4.91882813 -8.40976562 4.18921875 -7.5 3.4375 C-6.7059375 2.77621094 -5.911875 2.11492187 -5.09375 1.43359375 C-3 0 -3 0 0 0 Z " fill="#FC6194" transform="translate(294,112)"/>
<path d="M0 0 C4.48651472 4.31721228 6.09225367 8.18995442 6.375 14.3125 C6.30783668 19.40851663 4.60634885 22.47017844 1 26 C-3.93181171 29.55549216 -9.11516368 29.85301373 -15 29 C-19.89472807 26.64327908 -22.31615602 23.67187656 -25 19 C-26.24266632 15.27200105 -26.52902513 11.87217006 -26 8 C-23.51419437 3.21252249 -20.24063391 -0.70374644 -15.125 -2.75 C-9.21076401 -3.44579247 -5.08236566 -3.3145863 0 0 Z " fill="#02E8EA" transform="translate(309,187)"/>
<path d="M0 0 C1.375 0.6875 2.75 1.375 4.125 2.0625 C5.49205078 2.74119141 5.49205078 2.74119141 6.88671875 3.43359375 C9.06642405 4.53028362 11.23490933 5.64942873 13.39453125 6.78515625 C27.68588469 14.20657573 40.06044796 15.59823716 56 16 C50.74573879 22.35283017 45.7823894 28.2457753 37.125 29.375 C22.8426869 29.04769699 4.35818335 17.17776359 -6 8 C-4.44805246 4.67240077 -2.69378051 2.51419515 0 0 Z " fill="#FCA122" transform="translate(237,316)"/>
<path d="M0 0 C5.98348974 3.24028983 9.03681118 7.65783852 12.25 13.5 C13.85167865 19.90671458 13.12791559 24.95685868 10.27734375 30.8203125 C7.0457311 35.84326475 1.81501718 40.69609379 -4.125 42 C-11.3511788 43.04056975 -17.24956143 41.34184952 -23.125 37 C-28.83339256 30.2978387 -30.54008916 25.05795542 -30.47265625 16.33984375 C-29.841926 10.28058123 -26.9967305 6.82247444 -22.75 2.6875 C-14.96815844 -2.31511243 -8.46888176 -3.75830435 0 0 Z M-20.640625 8.46484375 C-24.18515667 12.630687 -25.48639165 15.2636988 -25.40625 20.7734375 C-24.74632054 25.99787907 -22.30367917 29.9055122 -18.5 33.4375 C-13.75387158 36.55995291 -9.7236886 36.59596235 -4.125 36 C-0.12962868 34.68325804 2.48715043 32.42762901 5.3125 29.3125 C7.96107425 23.69752259 7.50867888 19.11226294 5.75 13.25 C3.07187672 8.60791964 0.07314814 5.73271605 -5.125 4 C-11.01480565 3.54693803 -16.21639966 4.18885277 -20.640625 8.46484375 Z " fill="#6B2230" transform="translate(308.125,180)"/>
<path d="M0 0 C0.99 0.495 0.99 0.495 2 1 C3.58070475 19.96845695 -11.8142574 37.46874284 -23.30053711 51.21704102 C-44.82571049 76.60027066 -44.82571049 76.60027066 -59 82 C-61.375 81.6875 -61.375 81.6875 -63 81 C-63 79.35 -63 77.7 -63 76 C-62.01 76 -61.02 76 -60 76 C-33.27963253 59.26893914 -11.41393646 29.06749151 0 0 Z " fill="#2AD69D" transform="translate(259,250)"/>
<path d="M0 0 C-0.34144043 0.46672119 -0.68288086 0.93344238 -1.03466797 1.41430664 C-14.11981842 19.30191195 -14.11981842 19.30191195 -26 38 C-26.59498291 37.85852539 -27.18996582 37.71705078 -27.80297852 37.57128906 C-34.25221164 36.14550426 -40.3439259 35.68541365 -46.9375 35.75 C-48.37730225 35.75580078 -48.37730225 35.75580078 -49.84619141 35.76171875 C-56.37949657 35.84156903 -62.66123127 36.30157393 -69 38 C-62.24073259 30.55860469 -51.44832847 29.25596134 -41.9921875 27.125 C-32.71393128 24.6747074 -27.25991293 20.88250861 -21 13.625 C-6.87892992 -2.57766208 -6.87892992 -2.57766208 0 0 Z " fill="#2AD49B" transform="translate(188,205)"/>
<path d="M0 0 C0.33 0 0.66 0 1 0 C0.72652929 8.20412125 -2.13476614 13.85733283 -6 21 C-7.11400687 23.14074132 -8.21848808 25.28647173 -9.3125 27.4375 C-9.80363281 28.38496094 -10.29476563 29.33242188 -10.80078125 30.30859375 C-12.81734718 34.834372 -13.12748462 39.09021747 -13.2109375 44.0078125 C-13.23929687 45.16023438 -13.26765625 46.31265625 -13.296875 47.5 C-13.34845006 49.8930829 -13.39286665 52.28633212 -13.4296875 54.6796875 C-13.63034067 62.20418153 -14.63498388 68.84669106 -17 76 C-17.33 76 -17.66 76 -18 76 C-18.01417969 74.9584375 -18.02835937 73.916875 -18.04296875 72.84375 C-18.43222468 58.81734125 -21.20967604 45.93411329 -29 34 C-28.59910156 33.62230469 -28.19820313 33.24460937 -27.78515625 32.85546875 C-22.37222766 27.61437917 -17.71201147 21.86838157 -13 16 C-11.39766794 14.04016528 -9.79354634 12.08179209 -8.1875 10.125 C-6.03214776 7.49460655 -3.89201017 4.86151216 -1.80078125 2.1796875 C-1.20652344 1.46039063 -0.61226563 0.74109375 0 0 Z " fill="#29D69C" transform="translate(323,313)"/>
<path d="M0 0 C2.82664274 1.0780444 4.31249339 2.69686806 6.390625 4.87890625 C7.09703125 5.61238281 7.8034375 6.34585937 8.53125 7.1015625 C9.06234375 7.66746094 9.5934375 8.23335938 10.140625 8.81640625 C9.7075 9.89277344 9.274375 10.96914063 8.828125 12.078125 C3.26989672 26.28587393 3.26989672 26.28587393 5.015625 41.08984375 C6.09343876 43.05104056 6.09343876 43.05104056 8.640625 44.12890625 C19.19886142 46.20284555 26.76664984 42.08785488 35.390625 36.30859375 C36.99630444 35.17555382 38.57266123 34.00108999 40.140625 32.81640625 C42.450625 34.46640625 44.760625 36.11640625 47.140625 37.81640625 C43.43921544 40.28401263 39.52256435 42.17947544 35.53540039 44.12915039 C32.9397299 45.40250446 30.37756117 46.67399688 27.8984375 48.1640625 C22.01295129 51.68777634 15.84294157 51.68150317 9.140625 50.81640625 C3.94386814 48.35478458 0.49929474 44.69813994 -1.95703125 39.48828125 C-4.05699692 33.2702011 -3.00376301 26.32712233 -2.08984375 19.9296875 C-1.05867849 11.46186377 -1.05867849 11.46186377 -3.859375 3.81640625 C-3.859375 2.82640625 -3.859375 1.83640625 -3.859375 0.81640625 C-1.859375 -0.18359375 -1.859375 -0.18359375 0 0 Z " fill="#EFAD77" transform="translate(181.859375,298.18359375)"/>
<path d="M0 0 C0.33 0 0.66 0 1 0 C1.08636719 0.64324219 1.17273438 1.28648437 1.26171875 1.94921875 C4.1820974 20.73073647 13.80538032 33.80538032 27 47 C26.66306057 50.36939433 25.11180592 52.42910583 23 55 C14.95640425 53.89813757 8.47155502 43.62821549 3.6875 37.5 C-7.03676898 23.33337308 -7.03676898 23.33337308 -6.57421875 14.44921875 C-5.35378571 9.24369821 -2.62494179 4.61708511 0 0 Z " fill="#FCA022" transform="translate(175,241)"/>
<path d="M0 0 C1.00970296 3.49190965 0.95100882 6.5649126 0.78149414 10.19433594 C0.3824224 20.24887075 1.74520197 27.19332821 8.7109375 34.890625 C15.41096152 41.13589626 21.71218923 42.57895446 30.71484375 42.3515625 C35.65393269 41.82300364 39.6440012 40.33549142 44 38 C44.65871094 37.649375 45.31742187 37.29875 45.99609375 36.9375 C51.13165531 33.7567651 53.45375129 29.35553963 56 24 C56.33 23.34 56.66 22.68 57 22 C57.08400529 20.40552536 57.10727467 18.80759455 57.09765625 17.2109375 C57.09443359 16.26992187 57.09121094 15.32890625 57.08789062 14.359375 C57.07951172 13.37453125 57.07113281 12.3896875 57.0625 11.375 C57.05798828 10.38242188 57.05347656 9.38984375 57.04882812 8.3671875 C57.03702145 5.9113984 57.020554 3.45572896 57 1 C61.1802227 5.1802227 61.31579157 10.58967456 61.375 16.25 C61.23235316 25.34373632 59.1240515 32.67714953 52.828125 39.40234375 C45.22011603 46.05122338 36.56257862 49.61897834 26.41796875 49.3046875 C17.30458454 48.15631275 9.85655369 44.05060833 4 37 C-1.93800995 27.24916261 -3.81055475 19.36127581 -3 8 C-2.25607666 5.08918369 -1.28551867 2.73172717 0 0 Z " fill="#EDAC76" transform="translate(270,184)"/>
<path d="M0 0 C4.49171158 1.75415955 8.8992064 3.68457064 13.3125 5.625 C14.42334961 6.11226563 14.42334961 6.11226563 15.55664062 6.609375 C17.37140913 7.40553151 19.18574802 8.20266717 21 9 C20.67 11.97 20.34 14.94 20 18 C19.34128906 17.67644531 18.68257813 17.35289062 18.00390625 17.01953125 C14.28300065 15.75664912 10.81964583 15.66970831 6.9375 15.6875 C5.87692383 15.66333008 5.87692383 15.66333008 4.79492188 15.63867188 C0.57297324 15.6347076 -1.94540555 15.99300962 -5 19 C-4.35861776 16.01980994 -3.7121269 13.04089324 -3.0625 10.0625 C-2.88009766 9.21236328 -2.69769531 8.36222656 -2.50976562 7.48632812 C-2.33251953 6.67744141 -2.15527344 5.86855469 -1.97265625 5.03515625 C-1.72914429 3.91185913 -1.72914429 3.91185913 -1.48071289 2.76586914 C-1 1 -1 1 0 0 Z " fill="#EC6101" transform="translate(239,343)"/>
<path d="M0 0 C1.96484375 2.0390625 1.96484375 2.0390625 3.9375 4.625 C4.62714844 5.5221875 5.31679687 6.419375 6.02734375 7.34375 C8.39663703 10.53408551 10.73061045 13.73775252 13 17 C9.37 18.98 5.74 20.96 2 23 C1.29875 21.453125 0.5975 19.90625 -0.125 18.3125 C-3.14217803 12.30364122 -5.9694228 9.1785578 -12.375 6.6875 C-13.24125 6.460625 -14.1075 6.23375 -15 6 C-12.87748883 3.69895986 -10.84451444 2.18105541 -8.0625 0.75 C-7.39347656 0.39421875 -6.72445312 0.0384375 -6.03515625 -0.328125 C-3.47440317 -1.17351757 -2.45966236 -1.10925949 0 0 Z " fill="#EC6101" transform="translate(165,277)"/>
<path d="M0 0 C1 2 1 2 0.8125 5.1875 C1.05156626 10.04851399 2.26580781 12.01589138 5 16 C9.67103995 19.11402663 14.53024135 18.60051583 20 18 C23.62168388 16.1573889 26.29158262 14.00935265 29 11 C28.58649697 16.27216362 27.82965008 19.27385398 24 23 C18.96405101 26.47720287 13.93365207 26.86008963 8 26 C3.10527193 23.64327908 0.68384398 20.67187656 -2 16 C-3.23446068 12.29661796 -3.44981274 8.85339582 -3 5 C-1.5 2 -1.5 2 0 0 Z " fill="#1ABBB8" transform="translate(286,190)"/>
<path d="M0 0 C2.9375 1.5625 2.9375 1.5625 5 4 C4.9375 7.6875 4.9375 7.6875 4 11 C0.77709948 12.61145026 -2.51540068 12.59849988 -6 12 C-9.0625 9.75 -9.0625 9.75 -11 7 C-11.0625 4.875 -11.0625 4.875 -10 3 C-6.90068515 -0.21410429 -4.36402109 -0.62343158 0 0 Z " fill="#67FEFA" transform="translate(303,188)"/>
<path d="M0 0 C0.66 0.33 1.32 0.66 2 1 C-1.16336172 4.88641583 -4.40414808 8.49877576 -8 12 C-8.598125 12.598125 -9.19625 13.19625 -9.8125 13.8125 C-10.204375 14.204375 -10.59625 14.59625 -11 15 C-11.66 14.67 -12.32 14.34 -13 14 C-11.02108364 11.85393535 -9.04187901 9.70813786 -7.0625 7.5625 C-6.49853516 6.95083984 -5.93457031 6.33917969 -5.35351562 5.70898438 C-4.81533203 5.12568359 -4.27714844 4.54238281 -3.72265625 3.94140625 C-3.22515869 3.40201416 -2.72766113 2.86262207 -2.21508789 2.30688477 C-1.48918929 1.52614632 -0.75381738 0.75381738 0 0 Z " fill="#EF5484" transform="translate(254,144)"/>
<path d="M0 0 C0.33 0 0.66 0 1 0 C1.38808856 11.10364498 1.38808856 11.10364498 -1 15 C-1.99 15.33 -2.98 15.66 -4 16 C-2.84941444 10.60204011 -1.57578241 5.29012667 0 0 Z " fill="#FAA74A" transform="translate(142,379)"/>
<path d="M0 0 C4.23429756 1.31061591 8.07407404 2.94356259 12 5 C11.67 5.99 11.34 6.98 11 8 C9.16399255 6.85845641 7.33125195 5.71165684 5.5 4.5625 C4.4790625 3.92441406 3.458125 3.28632813 2.40625 2.62890625 C1.6121875 2.09136719 0.818125 1.55382812 0 1 C0 0.67 0 0.34 0 0 Z " fill="#F9A74B" transform="translate(129,304)"/>
</svg>
